<svg width="732" height="472" viewBox="0 0 732 472" fill="none" xmlns="http://www.w3.org/2000/svg">
<path fill-rule="evenodd" clip-rule="evenodd" d="M394.62 44.5298C443.008 44.3514 485.67 -1.73443 532.602 10.0487C582.966 22.6935 628.616 60.8161 649.262 108.462C669.815 155.894 658.57 211.564 640.988 260.176C625.406 303.256 585.82 329.823 556.477 365.003C526.434 401.022 512.218 459.117 466.46 469.418C420.342 479.801 382.817 431.856 339.067 413.95C300.947 398.347 261.258 392.072 225.893 370.956C177.112 341.828 118.27 319.504 94.4844 267.907C68.8834 212.37 62.7942 139.816 95.5342 88.1656C128.174 36.6735 196.963 19.8649 257.29 11.0634C304.876 4.12064 346.53 44.707 394.62 44.5298Z" fill="#D9BCE9"/>
<path d="M141.597 328.803C146.999 326.844 152.402 324.886 158.236 323.262C159.927 327.079 161.174 330.567 162.45 334.045C163.679 337.397 165.947 339.117 169.64 338.854C169.16 340.254 168.765 341.363 168.195 342.372C164.131 349.569 164.459 357.201 169.561 362.427C171.347 364.256 173.996 365.242 176.031 366.835C173.928 367.786 172.045 368.514 169.827 369.159C168.968 368.56 168.296 368.13 167.939 367.516C164.478 361.567 161.014 355.617 157.67 349.602C156.047 346.682 154.234 343.984 150.424 344.921C146.813 345.809 147.288 349.053 147.014 351.886C146.235 359.936 149.065 367.215 151.568 374.774C151.552 374.973 151.513 375.371 151.118 375.385C148.609 375.492 146.496 375.584 144.017 375.68C139.389 376.184 135.126 376.685 130.864 376.813C130.251 373.539 130.084 370.43 128.864 367.811C128.075 366.118 125.562 363.949 124.155 364.165C122.603 364.402 120.722 366.948 120.262 368.805C119.596 371.489 120.078 374.459 119.79 377.56C115.167 377.889 110.824 377.966 106.481 377.642C105.711 370.904 105.226 364.51 104.006 358.259C103.625 356.311 101.427 353.599 99.7482 353.351C98.2079 353.123 95.148 355.436 94.6657 357.163C92.8477 363.671 91.8078 370.397 90.1903 377.027C89.3556 376.844 88.8074 376.675 87.9317 376.484C80.2687 372.927 72.9332 369.392 65.866 365.62C67.247 358.963 68.8264 352.58 69.3135 346.114C69.6582 341.538 65.3042 339.305 62.0147 342.088C57.8704 345.595 54.5542 349.864 53.8414 355.531C50.7954 351.314 48.0256 347.228 45.2348 342.777C44.7084 340.282 44.2028 338.152 43.6973 336.022C42.6242 328.085 43.0255 320.294 47.5797 313.439C51.908 306.925 58.1822 303.881 66.7281 304.948C68.317 305.338 69.3149 305.585 70.6064 305.957C73.2592 307.558 75.6183 309.035 78.1111 310.809C81.0672 313.852 83.8897 316.598 86.5907 319.652C83.5269 325.645 79.5128 331.053 80.4062 337.907C80.6999 340.161 81.8871 343.58 83.4274 344.07C85.4132 344.701 89.2022 343.676 90.3897 342.04C93.8467 337.277 96.3947 331.854 99.6564 326.702C103.147 327.627 106.28 328.538 109.413 329.45C114.808 329.8 120.203 330.15 125.995 330.99C127.698 337.375 128.61 343.4 130.525 349.088C131.181 351.035 134.352 352.135 136.373 353.621C137.835 351.515 140.264 349.54 140.571 347.277C141.397 341.185 141.317 334.969 141.597 328.803Z" fill="#F19F59"/>
<path d="M621.699 289.92C623.534 291.573 625.368 293.226 627.44 295.004C638.058 303.273 647.298 312.539 655.549 323.611C657.1 326.712 658.315 329.311 659.53 331.91C659.408 336.393 657.036 339.596 653.348 341.682C649.071 344.102 644.786 347.018 640.124 348.153C625.627 351.682 610.949 354.47 595.959 357.67C587.061 356.839 578.544 355.884 569.775 354.445C572.183 351.519 574.844 349.078 577.842 346.784C591.254 349.431 604.475 349.359 617.372 346.778C626.806 344.889 635.877 341.044 644.986 337.732C651.784 335.261 652.412 332.323 647.545 326.877C636.62 314.651 624.138 304.608 607.998 299.365C602.282 296.048 602.323 296.066 604.843 290.079C605.927 287.504 606.802 284.841 608.052 282.427C612.787 285.064 617.243 287.492 621.699 289.92Z" fill="#DD7D35"/>
<path d="M577.505 346.636C574.844 349.078 572.183 351.519 569.485 354.254C566.515 356.177 563.574 357.789 560.655 359.442C559.238 360.245 557.864 361.122 556.197 361.602C560.402 352.125 562.321 342.843 557.238 333.336C555.144 329.422 552.627 325.735 550.389 321.65C551.589 318.745 552.884 316.195 553.785 313.511C556.804 304.514 555.591 296.142 548.667 289.433C540.91 281.916 531.305 280.069 520.871 282.066C520.506 282.136 520.288 282.974 519.759 283.719C518.882 288.013 518.25 292.042 517.34 296.146C515.569 297.074 514.075 297.927 512.423 298.519C510.097 295.385 507.928 292.513 505.76 289.64C505.25 289.994 504.739 290.347 504.229 290.701C506.103 293.544 507.948 296.407 509.855 299.227C517.989 311.252 523.404 324.553 527.894 338.382C525.812 343.231 524.067 347.892 522.123 352.469C521.729 353.396 520.586 354.005 519.748 354.379C516.147 327.93 507.236 297.528 501.362 293.484C502.558 296.934 503.605 299.671 504.459 302.467C506.64 309.615 508.736 316.79 510.485 323.989C504.864 323.6 505.436 327.301 505.326 330.638C505.128 336.698 504.652 342.752 504.62 348.811C504.599 352.808 503.262 357.088 506.543 361.643C509.055 358.141 511.139 355.112 513.368 352.195C514.197 351.111 515.37 350.29 516.604 349.591C517.801 352.664 518.78 355.495 519.781 358.711C518.984 361.874 518.164 364.651 517.345 367.429C516.513 367.051 515.599 366.245 514.868 366.386C513.463 366.657 512.162 367.466 511.603 367.709C505.138 363.616 499.262 359.894 493.042 355.706C492.241 354.484 491.941 353.536 491.298 353.002C480.871 344.347 471.735 334.563 464.544 323.013C464.043 322.208 462.702 321.928 461.751 321.403C461.475 321.712 461.198 322.021 460.922 322.329C461.555 323.614 461.971 325.076 462.854 326.156C468.892 333.535 475.036 340.827 481.125 348.163C482.343 349.631 483.475 351.169 484.646 352.675C477.634 355.756 470.622 358.837 463.28 361.595C459.248 354.38 455.789 347.339 451.714 340.675C450.284 338.337 447.181 338.763 445.658 341.148C444.354 343.191 443.349 345.736 443.179 348.128C442.809 353.332 443.056 358.58 443.051 363.81C438.981 363.476 434.912 363.142 430.398 362.755C428.674 361.723 427.395 360.746 426.048 359.155C426.856 353.867 427.939 349.216 428.468 344.503C428.605 343.289 427.275 341.237 426.116 340.739C424.938 340.233 422.69 340.676 421.705 341.574C419.527 343.56 417.848 346.093 415.724 348.226C404.407 331.805 398.138 313.918 397.509 294.251C402.366 293.944 406.835 293.816 411.233 293.186C412.306 293.033 413.887 291.229 413.879 290.193C413.872 289.177 412.295 287.566 411.138 287.271C406.543 286.098 401.844 285.337 397.148 284.053C397.398 281.49 397.684 279.298 398.388 277.112C402.112 277.132 405.432 277.329 408.715 277.063C409.933 276.964 411.063 275.779 412.233 275.089C411.351 274 410.682 272.371 409.547 271.924C406.359 270.669 402.978 269.9 399.676 268.555C400.656 262.701 401.633 257.23 402.932 251.781C404.583 252.324 405.912 252.846 407.241 253.367C407.533 253.089 407.824 252.81 408.116 252.532C407.09 251.387 406.133 250.171 405.028 249.109C400.095 244.366 394.026 240.503 392.302 233.257C391.967 231.848 392.023 229.562 392.876 228.848C393.988 227.918 396.076 227.945 397.741 227.957C398.869 227.966 399.993 228.657 401.607 229.211C400.603 222.916 395.554 225.845 392.064 223.716C393.509 221.116 394.34 217.906 396.411 216.227C401.916 211.763 406.274 217.262 410.957 219.522C411.297 218.942 411.636 218.361 411.976 217.781C409.266 215.469 406.556 213.157 403.707 210.726C404.176 210.377 404.682 209.821 405.31 209.56C412.196 206.697 418.055 208.783 422.689 215.492C423.263 216.324 424.658 216.59 425.673 217.118C425.671 215.932 425.916 214.673 425.596 213.581C425.3 212.572 424.397 211.741 423.082 209.858C429.664 211.763 433.835 215.222 435.812 220.256C438.686 227.578 441.055 235.18 442.735 242.861C443.984 248.565 443.798 254.584 444.163 259.33C437.224 261.824 431.336 263.543 425.853 266.122C423.893 267.045 421.461 270.329 421.793 272.04C422.436 275.357 425.899 274.448 428.576 274.006C431.668 273.495 434.764 272.89 437.883 272.666C444.879 272.164 444.885 272.249 444.894 279.079C444.896 280.582 444.695 282.119 444.94 283.581C445.559 287.269 443.901 288.654 440.469 289.772C435.678 291.333 431.044 293.583 426.679 296.116C425.317 296.907 425.042 299.569 424.269 301.375C425.782 302.019 427.278 303.145 428.811 303.196C431.152 303.274 433.556 302.769 435.865 302.222C438.693 301.552 441.449 300.584 444.587 299.639C444.587 302.569 444.769 304.946 444.542 307.284C444.241 310.395 443.42 313.463 443.248 316.573C443.186 317.701 444.351 318.897 444.955 320.062C445.53 318.988 446.514 317.951 446.615 316.834C447.326 308.948 448.3 301.048 448.344 293.147C448.415 280.409 447.897 267.664 447.488 254.927C447.383 251.655 447.161 248.288 446.292 245.158C443.613 235.498 445.012 226.172 447.94 216.898C449.873 210.774 451.867 204.668 453.834 198.555C453.834 198.555 453.805 198.618 454.006 198.526C454.417 198.196 454.626 197.958 455.071 197.615C455.756 197.25 456.205 196.99 456.634 196.749C456.615 196.768 456.668 196.766 456.646 197.118C458.661 203.56 461.563 209.009 467.67 212.456C473.095 222.647 478.374 232.576 483.652 242.505C484.06 242.329 484.467 242.153 484.875 241.977C482.939 237.379 481.242 232.662 479.017 228.208C474.663 219.493 470.013 210.925 465.865 202.279C468.427 201.956 470.61 201.65 472.821 201.684C473.982 204.929 474.794 208.026 476.364 210.673C477.399 212.418 479.525 213.516 481.371 215.148C483.648 223.782 485.715 232.171 487.781 240.561C488.215 240.504 488.65 240.446 489.084 240.389C488.94 237.669 489.169 234.866 488.58 232.247C487.078 225.572 485.21 218.979 483.771 212.096C485.957 202.788 481.159 196.129 475.984 189.677C475.415 188.968 473.912 189.008 472.506 188.696C468.615 188.183 467.729 185.625 467.48 182.579C466.842 181.463 466.204 180.347 464.986 178.214C467.745 177.998 469.881 177.831 472.745 177.73C475.029 178.528 476.701 179.086 478.118 180.029C480.996 181.944 483.736 184.066 486.672 186.412C491.313 205.368 492.45 224.406 493.187 243.564C494.407 237.854 495.176 232.16 495.06 226.485C494.92 219.637 494.03 212.805 493.795 205.912C499.946 201.95 500.447 190.875 495.041 185.222C491.547 181.569 488.021 177.949 484.857 174.285C486.793 172.177 488.381 170.097 489.968 168.018C490.419 168.054 490.871 168.091 491.824 168.396C492.814 168.713 493.303 168.76 494.039 168.967C496.515 170.867 498.674 172.707 500.988 174.325C507.373 178.791 513.006 183.758 514.695 191.918C515.229 194.497 516.27 196.972 517.15 199.699C517.221 199.903 517.32 200.325 516.938 200.334C510.836 201.022 506.681 204.09 503.566 209.128C502.413 211.161 501.063 212.777 500.251 214.63C496.839 222.417 498.788 229.467 503.639 236.378C504.922 238.616 506.225 240.461 507.263 242.443C509.278 246.29 511.908 246.402 515.468 243.945C525.777 242.469 534.525 232.686 535.003 222.423C535.528 211.132 528.87 204.094 520.563 197.671C520.714 196.681 520.832 196.094 520.927 195.504C522.481 185.84 522.373 176.664 513.895 169.688C511.753 167.925 509.919 165.787 507.943 163.821C513.21 164.893 518.463 166.044 523.753 166.989C525.421 167.287 527.188 167.03 529.305 167.285C532.991 168.884 536.283 170.225 539.726 171.838C544.523 174.961 549.169 177.814 553.851 180.688C555.008 178.897 555.974 177.404 557.506 175.033C559.148 178.732 560.342 181.42 562.085 185.344C563.832 181.135 565.025 178.261 566.219 175.387C566.675 175.424 567.131 175.462 567.587 175.5C568.309 179.978 569.031 184.456 569.846 189.506C572.344 186.529 574.417 184.058 576.49 181.588C576.908 181.796 577.326 182.005 577.744 182.214C577.109 186.652 576.474 191.089 575.753 196.135C579.181 194.2 581.614 192.827 584.719 191.075C583.967 195.011 583.443 197.758 582.786 200.768C581.863 202.049 581.073 203.068 579.915 204.561C583.809 208.169 587.533 211.619 591.227 215.39C591.835 217.482 592.473 219.254 592.758 221.114C588.867 222.389 585.128 223.18 581.831 224.846C575.367 228.112 569.053 231.714 562.905 235.542C561.632 236.335 561.351 238.719 560.613 240.37C562.498 240.866 564.361 241.506 566.277 241.787C567.051 241.901 567.938 241.229 568.775 240.917C578.41 237.328 588.045 233.739 597.892 230.367C599.196 233.353 600.287 236.122 600.989 238.994C596.68 240.064 592.701 240.838 588.855 242.039C580.304 244.707 571.762 247.431 563.361 250.525C561.767 251.111 559.594 253.843 559.902 254.992C560.347 256.655 562.68 258.698 564.439 258.947C568.645 259.542 573.009 259.489 577.265 259.148C586.883 258.379 596.474 257.277 606.19 256.689C606.653 260.441 607.003 263.813 606.926 267.201C599.79 266.928 593.082 266.423 586.374 266.421C581.019 266.42 575.648 266.892 570.32 267.478C569.095 267.613 567.054 269.111 567.085 269.915C567.137 271.252 568.424 272.664 569.469 273.786C569.985 274.34 571.116 274.333 571.976 274.555C583.857 277.61 595.923 276.569 608.051 276.501C608.019 278.629 607.896 280.424 607.773 282.218C606.802 284.841 605.927 287.504 604.843 290.079C602.323 296.066 602.282 296.048 608 299.71C609.308 304.936 614.214 308.333 613.032 314.815C609.101 312.494 605.862 310.582 601.582 308.055C604.8 315.543 607.434 321.673 610.068 327.803C609.678 328.034 609.288 328.265 608.898 328.496C604.523 325.151 600.149 321.805 594.852 317.754C595.97 323.06 596.784 326.922 597.597 330.783C597.077 331.016 596.557 331.248 596.036 331.48C594.731 330.296 593.426 329.113 592.407 328.188C587.369 334.425 582.437 340.531 577.505 346.636ZM497.526 254.899C496.667 257.181 495.807 259.462 494.544 262.179C493.87 263.808 493.195 265.436 491.779 267.208C481.134 268.664 481.156 258.832 477.889 253.281C476.225 256.3 474.982 259.062 473.297 261.52C467.7 269.679 469.216 276.084 478.008 280.62C480.884 282.104 484.278 282.913 485.229 286.768C485.352 287.267 486.711 287.461 487.267 287.698C486.894 284.076 486.062 280.832 486.339 277.686C486.903 271.266 491.918 269.131 497.07 272.516C499.62 274.191 502.575 275.249 505.82 276.962C507.148 275.883 509.469 274.94 509.639 273.701C510.627 266.531 509.364 259.661 504.908 253.758C502.159 250.117 500.625 250.392 497.526 254.899ZM562.02 280.812C558.591 284.023 558.374 286.926 562.199 288.996C565.037 290.533 568.643 291.407 571.861 291.291C575.857 291.147 577.261 286.606 574.446 283.64C571.252 280.275 567.342 278.765 562.02 280.812ZM560.39 225.188C559.719 222.81 559.73 219.509 558.159 218.349C556.928 217.44 553.586 218.856 551.473 219.856C549.954 220.576 548.281 222.119 547.817 223.641C547.189 225.706 546.887 228.587 547.905 230.193C548.623 231.328 552.116 231.737 553.74 231.027C556.188 229.957 558.086 227.627 560.39 225.188ZM500.793 306.578C500.134 302.9 499.474 299.221 498.815 295.543C498.468 295.597 498.121 295.652 497.774 295.707C498.668 314.406 499.562 333.106 500.449 351.646C503.104 347.777 503.301 329.52 500.793 306.578Z" fill="#F1A059"/>
<path d="M329.659 192.705C337.667 204.003 345.303 215.147 352.798 226.386C366.348 246.701 368.653 268.719 361.951 292.344C347.687 297.329 333.844 298.569 319.707 294.535C314.283 292.988 308.718 291.933 303.061 290.399C293.815 278.9 281.971 272.205 267.974 268.703C264.932 265.577 262.056 262.598 258.874 259.993C255.086 256.892 251.069 254.065 247.089 251.207C242.703 248.057 238.245 245.007 233.797 241.5C234.463 233.957 232.591 227.408 229.565 221.157C230.714 220.526 231.669 220.04 232.382 219.316C247.966 203.491 267.051 194.756 289.206 191.392C297.154 191.107 304.688 190.806 312.221 190.504C317.889 191.201 323.557 191.898 329.659 192.705ZM270.192 240.251C270.214 242.553 270.126 244.868 270.394 247.141C270.428 247.427 272.332 247.493 273.37 247.662C273.306 246.791 273.396 245.867 273.125 245.066C272.924 244.473 272.254 244.039 272.076 243.845C273.16 242.235 274.025 240.948 274.891 239.662C273.495 239.707 272.098 239.752 270.192 240.251Z" fill="#F5B270"/>
<path d="M175.774 313.111C177.703 311.527 179.631 309.943 181.423 308.471C181.304 307.817 181.355 307.427 181.185 307.257C172.999 299.043 173.763 290.045 178.743 280.611C180.202 277.848 181.444 274.97 183.336 271.889C184.281 271.433 184.889 271.334 185.039 271.017C189.955 260.661 196.633 250.955 196.815 238.837C196.835 237.532 197.654 235.245 198.35 235.146C199.899 234.926 201.791 235.489 203.189 236.326C204.381 237.04 205.06 238.596 206 239.751C206.658 240.56 207.374 241.321 208.44 242.529C209.205 236.73 205.852 233.695 196.26 231.143C197.289 228.556 197.765 225.63 199.382 223.626C203.941 217.978 212.945 219.391 216.753 226.126C217.957 228.255 218.869 230.549 220.438 233.879C222.269 229.551 220.637 226.929 219.1 224.729C217.366 222.249 214.914 220.27 212.728 218.026C222.512 215.533 228.107 222.271 230.105 231.008C232.419 241.123 230.023 250.77 226.35 259.938C222.633 269.216 217.696 278.003 213.381 287.047C212.969 287.911 213.177 289.072 213.098 290.094C214.081 289.652 215.237 289.401 215.998 288.712C216.735 288.045 217.008 286.892 217.583 286.015C219.557 283.002 221.573 280.018 223.573 277.022C224.036 277.136 224.499 277.25 224.961 277.364C225.468 280.963 226.593 284.604 226.352 288.152C225.846 295.576 224.819 302.984 223.59 310.328C223.11 313.198 222.456 315.975 225.396 317.405C228.269 318.802 230.215 316.761 231.444 314.272C234.077 308.941 237.019 303.719 239.12 298.181C241.783 291.164 241.488 283.807 240.187 276.451C239.874 274.679 238.913 271.973 242.448 271.726C246.324 271.455 250.2 271.167 254.07 270.82C257.787 270.486 259.871 272.132 261.071 275.666C263.736 283.515 264.211 291.437 262.837 299.574C261.993 304.573 261.181 309.605 260.855 314.655C260.612 318.409 263.005 319.719 266.43 317.984C267.699 317.342 269.037 316.273 269.677 315.051C272.034 310.55 274.25 305.963 276.264 301.298C279.65 293.456 280.906 285.292 278.52 275.879C290.19 281.05 299.082 287.551 303.959 298.612C304.551 299.954 305.311 301.223 305.838 302.777C298.674 309.539 292.218 316.813 284.524 322.377C273.533 330.324 261.855 337.404 250.044 344.102C242.961 348.119 235.067 350.704 227.305 353.716C221.149 349.363 215.225 345.226 209.301 340.771C208.985 339.64 208.843 338.689 208.326 338.037C201.364 329.254 194.375 320.492 187.311 311.791C186.524 310.822 185.236 310.26 184.181 309.51C183.781 309.874 183.382 310.239 182.983 310.604C185.768 315.086 188.552 319.568 190.989 324.052C189.107 323.351 187.364 322.913 186.079 321.896C182.542 319.097 179.196 316.056 175.774 313.111Z" fill="#F1A15A"/>
<path d="M288.792 191.375C267.051 194.756 247.966 203.491 232.382 219.316C231.669 220.04 230.714 220.526 229.287 221.027C225.354 218.875 222.1 216.643 218.635 214.811C214.173 212.451 210.384 215.52 206.321 216.681C195.268 219.841 192.441 223.401 194.177 234.613C195.1 240.578 193.694 245.733 191.437 250.95C188.185 245.508 184.958 240.05 181.666 234.632C180.744 233.114 179.633 231.712 178.617 229.564C179.234 226.559 180.117 224.271 180.327 221.923C180.423 220.853 179.363 218.848 178.534 218.675C175.495 218.04 172.333 217.997 169.217 217.731C168.993 212.811 168.77 207.89 168.996 202.602C170.42 202.234 171.394 202.233 172.377 202.573C173.575 208.849 178.248 207.498 182.502 207.754C184.433 210.103 186.081 212.312 187.455 214.155C190.407 214.355 193.164 214.41 195.883 214.757C199.758 215.252 201.772 213.637 202.371 209.253C204.566 203.762 206.522 198.482 208.809 193.2C215.255 190.89 217.859 185.156 216.54 176.903C216.987 176.37 217.433 175.837 218.168 175.578C219.616 177.388 220.972 178.815 221.898 180.481C224.717 185.554 227.282 190.769 230.156 195.809C230.81 196.956 232.347 198.36 233.408 198.305C234.508 198.249 236.164 196.722 236.451 195.56C237.18 192.611 238.076 189.337 237.469 186.499C236.079 179.996 233.833 173.676 231.934 167.281C237.713 164.803 243.492 162.325 249.629 160.212C251.508 167.661 252.875 174.783 254.655 181.801C255.112 183.603 256.869 185.076 258.029 186.699C259.514 185.626 261.82 184.856 262.347 183.429C265.43 175.081 267.14 166.544 263.442 157.85C277.522 156.645 289.337 161.73 298.799 171.748C303.027 176.225 305.867 182.012 308.916 187.519C302.764 188.11 297.023 188.275 291.312 188.78C290.403 188.86 289.629 190.471 288.792 191.375Z" fill="#EF9A53"/>
<path d="M432.621 166.035C434.296 169.747 435.971 173.459 437.348 177.547C430.8 180.711 424.497 183.387 418.329 186.345C416.154 187.389 412.984 188.786 414.477 191.838C415.262 193.441 418.116 194.744 420.136 194.902C427.794 195.502 434.82 192.966 441.541 189.509C443.59 194.974 445.638 200.439 447.658 206.625C445.843 213.615 444.055 219.885 442.115 226.69C441.598 225.678 441.364 225.306 441.209 224.903C436.018 211.499 427.277 205.273 413.095 204.986C411.784 204.96 410.418 205.244 409.158 205.642C406.315 206.541 403.522 207.602 400.566 208.31C397.155 201.909 393.887 195.795 390.912 189.54C393.852 187.717 396.648 186.219 399.081 184.269C400.185 183.384 401.5 180.991 401.084 180.358C400.271 179.121 398.316 177.994 396.819 177.974C392.957 177.921 389.088 178.496 384.985 178.619C383.389 174.947 382.029 171.477 380.983 167.867C385 166.135 388.867 164.823 392.324 162.808C393.69 162.012 394.141 159.649 395.008 157.999C393.482 157.397 391.947 156.268 390.43 156.292C385.964 156.362 381.505 156.888 376.727 157.148C374.799 151.872 373.375 146.616 371.511 141.521C370.269 138.127 372.166 137.276 374.641 136.491C376.717 135.832 378.787 135.153 381.189 134.484C383.126 133.896 384.734 133.307 386.653 132.69C390.926 130.573 394.887 128.483 399.124 126.531C404.504 132.131 410.677 132.999 417.543 130.893C418.781 133.405 420.019 135.917 420.975 138.746C416.218 141.126 411.652 143.021 407.324 145.358C406.049 146.046 405.447 147.981 404.536 149.344C406.018 150.138 407.767 151.888 408.937 151.561C414.182 150.097 419.262 148.043 424.402 146.201C425.575 148.663 426.748 151.125 427.602 153.957C422.333 157.061 417.233 159.564 412.507 162.641C410.626 163.866 409.571 166.36 408.139 168.276C410.475 169.358 412.771 170.546 415.172 171.458C415.899 171.734 416.956 171.364 417.794 171.085C422.747 169.435 427.681 167.725 432.621 166.035Z" fill="#EF9C56"/>
<path d="M191.328 251.267C193.694 245.733 195.1 240.578 194.177 234.613C192.441 223.401 195.268 219.841 206.321 216.681C210.384 215.52 214.173 212.451 218.635 214.811C222.1 216.643 225.354 218.875 228.98 221.061C232.591 227.408 234.463 233.957 233.746 241.87C230.986 252.798 228.254 262.943 225.385 273.599C234.212 268.975 243.565 267.582 253.248 268.104C258.169 268.369 263.086 268.709 268.005 269.015C281.971 272.205 293.815 278.899 303.174 290.695C304.86 294.923 306.279 298.601 307.414 302.324C306.751 302.422 306.372 302.474 305.993 302.526C305.311 301.223 304.551 299.954 303.959 298.612C299.082 287.551 290.19 281.05 278.52 275.879C280.906 285.292 279.65 293.456 276.264 301.298C274.25 305.963 272.034 310.55 269.677 315.051C269.037 316.273 267.699 317.342 266.43 317.984C263.005 319.719 260.612 318.409 260.855 314.655C261.181 309.605 261.993 304.573 262.837 299.574C264.211 291.437 263.736 283.515 261.071 275.666C259.871 272.132 257.787 270.486 254.07 270.82C250.2 271.167 246.324 271.455 242.448 271.726C238.913 271.973 239.874 274.679 240.187 276.451C241.488 283.807 241.783 291.164 239.12 298.181C237.019 303.719 234.077 308.941 231.444 314.272C230.215 316.761 228.269 318.802 225.396 317.405C222.456 315.975 223.11 313.198 223.59 310.328C224.819 302.984 225.846 295.576 226.352 288.152C226.593 284.604 225.468 280.963 224.961 277.364C224.499 277.25 224.036 277.136 223.573 277.022C221.573 280.018 219.557 283.002 217.583 286.015C217.008 286.892 216.735 288.045 215.998 288.712C215.237 289.401 214.081 289.652 213.098 290.094C213.177 289.072 212.969 287.911 213.381 287.047C217.696 278.003 222.633 269.216 226.35 259.938C230.023 250.77 232.419 241.123 230.105 231.008C228.107 222.271 222.512 215.533 212.728 218.026C214.914 220.27 217.366 222.249 219.1 224.729C220.637 226.929 222.269 229.551 220.438 233.879C218.869 230.549 217.957 228.255 216.753 226.126C212.945 219.391 203.941 217.978 199.382 223.626C197.765 225.63 197.289 228.556 196.26 231.143C205.852 233.695 209.205 236.73 208.44 242.529C207.374 241.321 206.658 240.56 206 239.751C205.06 238.596 204.381 237.04 203.189 236.326C201.791 235.489 199.899 234.926 198.35 235.146C197.654 235.245 196.835 237.532 196.815 238.837C196.633 250.955 189.955 260.661 185.039 271.017C184.889 271.334 184.281 271.433 183.576 271.688C185.918 265.023 188.568 258.304 191.328 251.267Z" fill="#DA7B33"/>
<path d="M569.081 149.91C577.583 148.719 585.762 147.677 594.701 146.593C597.86 146.657 600.278 146.605 602.654 146.895C611.576 147.985 615.23 151.747 614.33 160.596C613.655 167.239 612.05 173.928 609.834 180.236C607.31 187.423 603.649 194.211 600.482 201.172C597.56 205.672 594.638 210.173 591.487 214.872C587.533 211.619 583.809 208.169 579.915 204.561C581.073 203.068 581.863 202.049 583.057 200.619C591.092 192.471 597.778 184.055 602.013 173.933C603.806 169.649 605.654 165.361 607.014 160.932C608.083 157.451 607.684 154.057 602.843 153.998C597.936 153.938 593.008 154.007 588.119 154.402C575.011 155.461 562.356 158.238 550.861 165.033C547.119 167.245 543.338 169.39 539.574 171.567C536.283 170.225 532.991 168.884 529.631 167.215C539.031 159.119 550.406 155.462 561.839 151.944C564.123 151.241 566.451 150.684 569.081 149.91Z" fill="#DA7B33"/>
<path d="M400.709 208.596C403.522 207.602 406.315 206.541 409.158 205.642C410.418 205.244 411.784 204.96 413.095 204.986C427.277 205.273 436.018 211.499 441.209 224.903C441.364 225.306 441.598 225.678 442.115 226.69C444.055 219.885 445.843 213.615 447.625 206.969C449.48 203.928 451.339 201.264 453.517 198.577C451.867 204.668 449.873 210.774 447.94 216.898C445.012 226.172 443.613 235.498 446.292 245.158C447.161 248.288 447.383 251.655 447.488 254.927C447.897 267.664 448.415 280.409 448.344 293.147C448.3 301.048 447.326 308.948 446.615 316.834C446.514 317.951 445.53 318.988 444.955 320.062C444.351 318.897 443.186 317.701 443.248 316.573C443.42 313.463 444.241 310.395 444.542 307.284C444.769 304.946 444.587 302.569 444.587 299.639C441.449 300.584 438.693 301.552 435.865 302.222C433.556 302.769 431.152 303.274 428.811 303.196C427.278 303.145 425.782 302.019 424.269 301.375C425.042 299.569 425.317 296.907 426.679 296.116C431.044 293.583 435.678 291.333 440.469 289.772C443.901 288.654 445.559 287.269 444.94 283.581C444.695 282.119 444.896 280.582 444.894 279.079C444.885 272.249 444.879 272.164 437.883 272.666C434.764 272.89 431.668 273.495 428.576 274.006C425.899 274.448 422.436 275.357 421.793 272.04C421.461 270.329 423.893 267.045 425.853 266.122C431.336 263.543 437.224 261.824 444.163 259.33C443.798 254.584 443.984 248.565 442.735 242.861C441.055 235.18 438.686 227.578 435.812 220.256C433.835 215.222 429.664 211.763 423.082 209.858C424.397 211.741 425.3 212.572 425.596 213.581C425.916 214.673 425.671 215.932 425.673 217.118C424.658 216.59 423.263 216.324 422.689 215.492C418.055 208.783 412.196 206.697 405.31 209.56C404.682 209.821 404.176 210.377 403.707 210.726C406.556 213.157 409.266 215.469 411.976 217.781C411.636 218.361 411.297 218.942 410.957 219.522C406.274 217.262 401.916 211.763 396.411 216.227C394.34 217.906 393.509 221.116 392.064 223.716C395.554 225.845 400.603 222.916 401.607 229.211C399.993 228.657 398.869 227.966 397.741 227.957C396.076 227.945 393.988 227.918 392.876 228.848C392.023 229.562 391.967 231.848 392.302 233.257C394.026 240.503 400.095 244.366 405.028 249.109C406.133 250.171 407.09 251.387 408.116 252.532C407.824 252.81 407.533 253.089 407.241 253.367C405.912 252.846 404.583 252.324 402.835 251.497C400.649 249.943 398.882 248.695 396.993 247.156C387.957 237.062 386.749 226.368 392.895 214.649C393.213 214.044 391.838 211.768 390.823 211.374C384.836 209.054 378.723 207.061 372.533 204.666C372.185 203.787 371.955 203.198 372.001 202.613C372.823 202.655 373.37 202.694 374.313 202.857C380.647 204.855 386.586 206.729 392.686 208.87C396.065 213.23 398.104 213.089 400.709 208.596Z" fill="#DD7F37"/>
<path d="M216.277 177.063C217.859 185.156 215.256 190.89 208.847 192.854C208.823 188.89 211.827 185.573 209.414 181.502C208.214 183.912 207.014 186.323 205.491 188.694C202.272 186.421 199.457 184.072 196.452 181.996C194.582 180.704 192.428 179.825 190.4 178.369C191.149 171.043 189.223 168.509 181.163 167.841C179.026 166.287 177.169 164.869 175.311 163.451C176.504 156.513 177.435 149.517 178.964 142.654C180.488 135.815 187.78 130.71 195.923 130.128C203.137 129.612 208.385 132.844 211.468 139.959C215.566 149.421 213.833 159.142 212.421 168.802C211.868 172.585 210.98 176.319 211.166 180.736C212.782 179.565 214.398 178.394 216.277 177.063ZM196.788 154.093C191.775 149.042 185.127 150.048 182.762 156.253C181.708 159.018 182.177 161.255 185.253 162.425C187.832 163.406 190.449 164.316 192.942 165.486C196.352 167.085 198.554 165.948 198.464 162.113C198.405 159.624 197.653 157.152 196.788 154.093ZM193.998 135.918C191.041 138.115 190.617 141.101 191.817 144.264C192.113 145.045 194.291 146.009 194.661 145.712C196.37 144.343 198.222 142.771 199.075 140.851C199.657 139.542 199.033 137.334 198.234 135.937C197.859 135.28 195.801 135.586 193.998 135.918ZM209.157 148.3C208.144 146.773 207.131 145.246 206.118 143.719C204.499 145.496 202.518 147.083 201.429 149.142C200.965 150.019 202.137 152.883 202.971 153.075C204.388 153.4 206.258 152.552 207.675 151.739C208.385 151.331 208.517 149.914 209.157 148.3ZM187.028 146.664C187.248 145.501 187.834 144.257 187.598 143.195C187.284 141.789 186.328 140.526 185.648 139.202C184.471 139.89 182.421 140.443 182.29 141.293C181.957 143.448 182.484 145.737 182.667 147.972C184.017 147.752 185.368 147.532 187.028 146.664Z" fill="#F2A562"/>
<path d="M175.49 313.171C179.196 316.056 182.542 319.097 186.079 321.896C187.364 322.913 189.107 323.351 191.259 324.183C196.837 330.106 201.797 335.899 206.686 341.97C203.664 345.273 200.712 348.298 197.7 350.992C194.325 346.906 191.204 342.945 187.569 339.532C186.555 338.58 183.925 338.882 182.228 339.332C181.442 339.54 180.355 341.839 180.703 342.582C183.251 348.019 186.128 353.301 188.71 358.873C184.429 361.614 180.339 364.113 176.25 366.612C173.996 365.242 171.347 364.256 169.561 362.427C164.459 357.201 164.131 349.569 168.195 342.372C168.765 341.363 169.16 340.254 169.935 338.686C170.941 336.506 172.321 334.793 172.23 333.161C171.921 327.586 171.095 322.04 170.466 316.483C172.046 315.399 173.626 314.315 175.49 313.171Z" fill="#EF9A53"/>
<path d="M507.64 163.666C509.919 165.787 511.753 167.925 513.895 169.688C522.373 176.664 522.481 185.84 520.927 195.504C520.832 196.094 520.714 196.681 520.245 197.611C518.949 198.466 518.014 198.98 517.079 199.494C516.27 196.972 515.229 194.497 514.695 191.918C513.006 183.758 507.373 178.791 500.988 174.325C498.674 172.707 496.516 170.867 493.975 168.711C493.199 167.83 492.734 167.366 492.27 166.902C491.525 165.852 490.78 164.802 489.372 162.819C491.611 162.92 492.858 162.82 494.035 163.062C496.544 163.576 498.942 165.898 501.456 162.445C501.966 161.744 505.303 163.102 507.64 163.666Z" fill="#DD7F37"/>
<path d="M231.623 167.29C233.833 173.676 236.079 179.996 237.469 186.499C238.076 189.337 237.18 192.611 236.451 195.56C236.164 196.722 234.508 198.249 233.408 198.305C232.347 198.36 230.81 196.956 230.156 195.809C227.282 190.769 224.717 185.554 221.898 180.481C220.972 178.815 219.616 177.388 218.432 175.543C222.71 172.589 227.011 169.944 231.623 167.29Z" fill="#DA7B33"/>
<path d="M263.041 157.789C267.14 166.544 265.43 175.081 262.347 183.429C261.82 184.856 259.514 185.626 258.029 186.699C256.869 185.076 255.112 183.603 254.655 181.801C252.875 174.783 251.508 167.661 249.979 160.234C254.193 159.17 258.416 158.449 263.041 157.789Z" fill="#DD7D35"/>
<path d="M141.238 328.772C141.317 334.969 141.397 341.185 140.571 347.277C140.264 349.54 137.835 351.515 136.373 353.621C134.352 352.135 131.181 351.035 130.525 349.088C128.61 343.4 127.698 337.374 126.409 331.104C131.242 330.065 136.061 329.404 141.238 328.772Z" fill="#DD7D35"/>
<path d="M441.512 189.154C434.82 192.966 427.794 195.502 420.136 194.902C418.116 194.744 415.262 193.441 414.477 191.838C412.984 188.786 416.154 187.389 418.329 186.345C424.497 183.387 430.8 180.711 437.377 177.882C438.963 181.493 440.223 185.146 441.512 189.154Z" fill="#DD7D35"/>
<path d="M484.509 174.313C488.021 177.949 491.547 181.569 495.041 185.222C500.447 190.875 499.946 201.95 493.597 205.612C491.65 197.278 490.898 188.991 486.779 181.716C486.394 181.821 486.008 181.925 485.623 182.029C485.926 183.387 486.23 184.745 486.533 186.103C483.736 184.066 480.996 181.944 478.118 180.029C476.701 179.086 475.029 178.528 473.13 177.821C472.133 176.488 471.479 175.129 470.506 173.107C473.308 172.815 476.084 172.525 479.382 172.086C481.439 172.729 482.974 173.521 484.509 174.313Z" fill="#DD7F37"/>
<path d="M432.59 165.68C427.681 167.725 422.747 169.435 417.794 171.085C416.956 171.364 415.899 171.734 415.172 171.458C412.771 170.546 410.475 169.358 408.139 168.276C409.571 166.36 410.626 163.866 412.507 162.641C417.233 159.564 422.333 157.061 427.637 154.283C429.513 157.935 431.036 161.63 432.59 165.68Z" fill="#DD7D35"/>
<path d="M417.765 104.113C418.687 103.767 419.609 103.422 420.817 103.013C426.761 110.414 426.493 120.337 420.445 127.287C419.564 128.299 418.678 129.306 417.669 130.605C410.677 132.999 404.504 132.131 399.074 126.171C398.467 122.904 398.188 120.133 397.909 117.362C399.385 116.064 400.862 114.765 402.824 113.147C406.409 112.245 409.509 111.662 412.858 111.057C413.441 111.024 413.775 111.013 414.127 111.343C414.63 113.128 415.115 114.572 415.945 117.041C413.762 116.158 412.484 115.642 411.206 115.125C407.574 113.655 403.091 115.016 401.844 117.966C400.459 121.244 402.118 125.765 405.247 127.241C410.227 129.589 416.444 128.063 420.247 123.559C422.75 120.595 423.295 110.586 420.898 107.758C420.254 106.998 418.821 106.906 417.743 106.205C417.746 105.306 417.756 104.709 417.765 104.113Z" fill="#DD7F37"/>
<path d="M170.142 316.565C171.095 322.04 171.921 327.586 172.23 333.161C172.321 334.793 170.941 336.506 169.94 338.35C165.947 339.117 163.679 337.397 162.45 334.045C161.174 330.567 159.927 327.079 158.568 323.23C158.469 322.864 158.522 322.855 158.797 322.853C159.264 322.601 159.457 322.352 159.65 322.102C163.04 320.284 166.429 318.466 170.142 316.565Z" fill="#DD7D35"/>
<path d="M472.794 201.344C470.61 201.65 468.427 201.956 465.614 202.122C462.675 199.034 460.366 196.087 458.056 193.141C460.979 189.598 463.901 186.056 467.152 182.546C467.73 185.625 468.615 188.183 472.535 188.982C473.193 189.975 473.487 190.678 473.76 191.397C473.739 191.414 473.701 191.449 473.36 191.495C469.263 194.724 470.958 198.032 472.794 201.344Z" fill="#EF9A53"/>
<path d="M175.173 163.79C177.169 164.869 179.026 166.286 181.011 168.113C174.515 178.796 174.366 190.755 172.369 202.233C171.395 202.233 170.421 202.234 169.081 202.234C170.822 189.532 172.928 176.83 175.173 163.79Z" fill="#F09F58"/>
<path d="M424.251 145.905C419.262 148.043 414.182 150.097 408.937 151.561C407.767 151.888 406.018 150.138 404.536 149.344C405.447 147.981 406.049 146.046 407.324 145.358C411.652 143.021 416.219 141.126 421.033 139.061C422.281 141.244 423.191 143.426 424.251 145.905Z" fill="#DD7D35"/>
<path d="M457.788 193.163C460.366 196.087 462.675 199.034 465.235 202.139C470.014 210.925 474.663 219.493 479.017 228.208C481.242 232.662 482.939 237.379 484.875 241.977C484.467 242.153 484.06 242.329 483.652 242.505C478.374 232.576 473.096 222.647 467.632 212.125C466.473 209.51 465.8 207.255 464.458 205.518C462.076 202.435 459.287 199.666 456.669 196.766C456.669 196.766 456.615 196.768 456.625 196.449C456.274 195.669 455.913 195.206 455.553 194.744C456.209 194.225 456.864 193.705 457.788 193.163Z" fill="#F6C298"/>
<path d="M169.302 218.046C172.332 217.997 175.495 218.04 178.534 218.675C179.363 218.848 180.423 220.853 180.327 221.923C180.117 224.271 179.234 226.559 178.583 229.261C175.488 225.886 172.437 222.123 169.302 218.046Z" fill="#F09F58"/>
<path d="M484.857 174.285C482.974 173.521 481.438 172.728 479.647 171.817C478.177 170.643 476.962 169.588 475.292 168.138C480.362 164.501 484.943 167.175 489.694 167.802C488.381 170.097 486.793 172.177 484.857 174.285Z" fill="#F5B270"/>
<path d="M289.206 191.392C289.629 190.471 290.403 188.86 291.312 188.78C297.023 188.275 302.764 188.11 308.901 187.838C310.223 188.541 311.138 189.239 312.137 190.22C304.687 190.806 297.154 191.107 289.206 191.392Z" fill="#DD7F37"/>
<path d="M455.307 194.919C455.913 195.207 456.274 195.669 456.644 196.431C456.205 196.991 455.756 197.25 454.8 197.603C454.112 197.682 453.931 197.669 453.751 197.656C454.187 196.802 454.624 195.948 455.307 194.919Z" fill="#EF9A53"/>
<path d="M492.174 167.26C492.734 167.366 493.199 167.83 493.728 168.551C493.303 168.76 492.814 168.713 492.146 168.509C492.004 168.107 492.041 167.863 492.174 167.26Z" fill="#F5B270"/>
<path d="M453.65 197.886C453.931 197.669 454.111 197.682 454.563 197.708C454.626 197.958 454.417 198.196 453.977 198.507C453.681 198.426 453.615 198.271 453.65 197.886Z" fill="#DD7F37"/>
<path d="M159.417 322.138C159.457 322.352 159.264 322.601 158.823 322.849C158.779 322.623 158.982 322.398 159.417 322.138Z" fill="#F19F59"/>
<path d="M169.827 369.159C169.732 369.676 169.303 370.11 168.67 370.779C168.222 371.052 168.009 371.152 167.437 371.514C166.396 372.046 165.743 372.379 165.091 372.712C164.326 372.869 163.561 373.026 162.226 373.408C160.413 373.709 159.171 373.786 157.929 373.863C157.195 374.018 156.461 374.174 155.106 374.445C153.517 374.566 152.551 374.57 151.585 374.575C149.065 367.215 146.235 359.936 147.014 351.886C147.288 349.053 146.813 345.809 150.424 344.921C154.234 343.984 156.047 346.682 157.67 349.602C161.014 355.617 164.478 361.567 167.939 367.516C168.296 368.13 168.968 368.56 169.827 369.159Z" fill="#DD7D35"/>
<path d="M106.481 377.642C101.402 377.761 96.3242 377.479 90.8614 377.12C91.8079 370.397 92.8477 363.671 94.6657 357.163C95.148 355.436 98.2079 353.123 99.7482 353.351C101.427 353.599 103.625 356.311 104.006 358.259C105.226 364.51 105.711 370.904 106.481 377.642Z" fill="#DD7D35"/>
<path d="M86.5907 319.652C90.0823 321.179 93.4524 323.016 97.1483 324.911C97.9804 325.407 98.4868 325.845 99.1462 326.486C96.3947 331.854 93.8467 337.277 90.3897 342.04C89.2022 343.676 85.4132 344.701 83.4274 344.07C81.8871 343.58 80.6999 340.161 80.4062 337.907C79.5128 331.053 83.5269 325.645 86.5907 319.652Z" fill="#DD7F37"/>
<path d="M65.866 365.62C61.8617 362.638 58.1256 359.418 54.2536 355.93C54.5542 349.864 57.8704 345.595 62.0147 342.088C65.3042 339.305 69.6582 341.538 69.3135 346.114C68.8264 352.58 67.247 358.963 65.866 365.62Z" fill="#DD7F37"/>
<path d="M130.864 376.813C127.539 377.231 124.215 377.276 120.48 377.314C120.078 374.459 119.596 371.489 120.262 368.805C120.722 366.948 122.603 364.402 124.155 364.165C125.562 363.949 128.075 366.118 128.864 367.811C130.084 370.43 130.251 373.539 130.864 376.813Z" fill="#DA7B33"/>
<path d="M151.568 374.774C152.551 374.57 153.517 374.566 154.845 374.567C154.112 375.009 153.018 375.445 151.718 375.626C151.513 375.371 151.552 374.973 151.568 374.774Z" fill="#E16B86"/>
<path d="M310.382 309.499C311.595 306.584 313.501 303.472 308.028 302.318C306.279 298.601 304.86 294.924 303.329 290.95C308.717 291.933 314.283 292.988 319.707 294.535C333.844 298.569 347.686 297.329 361.756 292.623C357.758 304.989 353.434 317.458 349.057 329.908C348.412 331.745 347.512 333.493 346.235 335.469C345.397 335.052 345.14 334.375 344.696 333.858C343.407 332.358 342.042 330.922 340.707 329.462C339.063 331.099 336.498 332.47 335.933 334.421C333.29 343.545 333.56 352.896 334.987 362.228C333.78 365.822 332.573 369.415 331.221 373.306C327.728 373.898 324.381 374.191 320.674 374.105C315.99 363.614 313.833 353.03 312.93 342.093C312.801 340.528 310.646 338.354 309.047 337.94C307.837 337.628 305.385 339.325 304.606 340.743C303.119 343.45 301.698 346.561 301.552 349.567C301.147 357.882 301.413 366.23 301.414 374.565C279.055 374.281 257.525 370.423 237.361 359.511C240.48 357.329 243.693 355.145 247.161 353.497C268.921 343.157 288.872 330.179 306.568 313.734C306.46 318.785 306.074 323.546 305.688 328.307C306.092 328.471 306.496 328.635 306.9 328.8C307.762 326.958 309.127 325.185 309.385 323.262C309.997 318.712 310.084 314.091 310.382 309.499ZM325.216 308.627C324.046 303.686 321.146 301.564 314.839 302.275C318.712 304.919 321.747 306.989 325.216 308.627Z" fill="#F19F57"/>
<path d="M301.827 374.656C301.413 366.23 301.147 357.882 301.552 349.567C301.698 346.561 303.119 343.45 304.606 340.743C305.385 339.325 307.837 337.628 309.047 337.94C310.646 338.354 312.801 340.528 312.93 342.093C313.833 353.03 315.99 363.614 320.301 374.055C314.272 374.506 308.256 374.626 301.827 374.656Z" fill="#DA7B33"/>
<path d="M159.962 380.462C160.246 380.122 160.765 379.877 161.41 379.824C161.089 380.196 160.643 380.376 159.962 380.462Z" fill="#E16B86"/>
<path d="M539.474 365.258C536.537 367.178 533.672 369.222 530.636 370.97C528.854 371.996 526.8 372.55 523.845 373.722C524.886 371.021 525.442 369.579 526.053 367.473C528.189 362.203 530.271 357.598 532.683 352.911C533.246 351.667 533.936 350.37 533.64 349.361C531.251 341.2 528.677 333.092 526.514 324.957C529.758 323.952 532.647 322.959 535.913 321.982C539.47 322.071 542.65 322.143 545.877 322.582C547.079 328.762 548.383 334.551 549.302 340.401C549.582 342.184 549.178 344.298 548.442 345.977C545.594 352.466 542.486 358.841 539.474 365.258Z" fill="#F1A059"/>
<path d="M539.352 365.649C542.485 358.841 545.594 352.466 548.442 345.977C549.178 344.298 549.582 342.184 549.302 340.401C548.383 334.551 547.079 328.762 545.931 322.389C546.041 321.556 546.236 321.392 546.641 321.617C547.942 321.915 549.123 321.93 550.303 321.944C552.628 325.735 555.144 329.422 557.238 333.336C562.321 342.843 560.403 352.125 555.878 361.562C553.81 363.55 551.789 365.213 549.401 367.178C548.843 365.872 548.487 365.037 547.974 363.836C545.335 366.254 542.791 368.586 539.861 370.742C539.335 370.335 539.143 370.163 538.898 370.05C539.009 368.713 539.12 367.376 539.352 365.649Z" fill="#DD7F37"/>
<path d="M443.384 363.901C443.056 358.58 442.809 353.332 443.179 348.128C443.349 345.736 444.354 343.191 445.658 341.148C447.181 338.763 450.284 338.337 451.714 340.675C455.789 347.339 459.248 354.38 462.943 361.621C456.53 362.644 450.124 363.318 443.384 363.901Z" fill="#DD7D35"/>
<path d="M532.352 352.992C530.27 357.598 528.189 362.203 526.083 367.139C523.841 368.25 521.657 369.187 519.378 369.705C518.778 369.841 517.884 368.683 517.235 367.774C518.164 364.651 518.984 361.874 519.782 358.355C519.77 356.663 519.779 355.712 519.788 354.761C520.586 354.005 521.729 353.396 522.123 352.469C524.067 347.892 525.812 343.231 528.088 338.658C529.817 343.476 531.085 348.234 532.352 352.992Z" fill="#DD7F37"/>
<path d="M484.996 352.686C483.475 351.169 482.343 349.631 481.125 348.163C475.036 340.827 468.892 333.535 462.854 326.156C461.971 325.076 461.555 323.614 460.922 322.329C461.198 322.021 461.475 321.712 461.751 321.403C462.702 321.928 464.043 322.208 464.544 323.013C471.735 334.563 480.871 344.347 491.298 353.002C491.941 353.536 492.241 354.484 492.79 355.569C490.368 354.831 487.857 353.764 484.996 352.686Z" fill="#DD7F37"/>
<path d="M538.87 370.29C539.143 370.163 539.335 370.335 539.55 370.747C539.364 370.795 539.103 370.662 538.87 370.29Z" fill="#F1A059"/>
<path d="M347.955 350.69C351.324 342.511 355.081 334.466 357.974 326.122C362.636 312.672 366.729 299.025 371.437 285.407C372.41 285.107 373.134 285 373.59 284.593C376.005 282.435 378.354 280.201 380.712 278.327C378.602 286.397 376.485 294.126 374.414 301.868C372.294 309.793 374.67 316.922 378.49 323.732C379.281 325.142 380.496 326.315 381.516 327.597C382.144 327.423 382.771 327.25 383.399 327.077C376.138 314.641 375.715 302.006 380.451 289.005C383.925 290.288 386.857 291.371 389.808 292.855C390.702 307.241 393.338 320.837 399.6 333.472C403.306 340.953 407.536 348.174 411.379 355.821C410.705 358.078 410.185 360.025 409.257 362.028C403.487 362.456 398.125 362.827 392.695 362.852C391.918 361.206 391.299 359.846 390.484 358.616C386.864 353.151 383.171 347.734 379.539 342.277C377.648 339.435 376.002 335.558 371.812 336.986C367.867 338.33 368.636 342.565 368.268 345.873C368.206 346.429 368.464 347.049 368.671 347.603C370.903 353.583 373.155 359.555 375.038 365.621C368.301 366.88 361.926 368.047 355.514 368.881C352.969 362.595 350.462 356.642 347.955 350.69Z" fill="#F09F58"/>
<path d="M340.767 196.283C347.693 197.688 354.702 199.444 361.728 201.126C363.561 201.565 365.448 201.777 367.755 202.398C369.684 203.454 371.168 204.206 372.652 204.957C378.723 207.061 384.836 209.054 390.823 211.374C391.838 211.768 393.213 214.044 392.895 214.649C386.749 226.368 387.956 237.062 396.968 247.475C396.455 249.882 395.844 251.68 394.977 253.664C390.055 261.897 385.39 269.945 380.726 277.993C378.354 280.201 376.005 282.435 373.59 284.593C373.134 285 372.41 285.107 371.614 285.095C373.65 267.159 373.258 249.664 364.579 233.628C359.112 223.525 352.279 214.16 346.043 204.474C344.343 201.833 342.587 199.227 340.767 196.283Z" fill="#F5B270"/>
<path d="M335.198 361.983C333.56 352.896 333.29 343.545 335.933 334.421C336.498 332.47 339.063 331.099 340.707 329.462C342.042 330.922 343.407 332.358 344.696 333.858C345.14 334.375 345.398 335.052 346.054 335.747C342.714 344.47 339.061 353.104 335.198 361.983Z" fill="#DA7B33"/>
<path d="M347.7 350.875C350.462 356.642 352.969 362.595 355.17 368.998C350.267 370.327 345.669 371.204 341.072 372.082C340.857 372.042 340.643 372.003 340.107 371.895C342.338 364.905 344.892 357.983 347.7 350.875Z" fill="#DD7D35"/>
<path d="M418.901 424.362C419.253 424.122 419.805 424.033 420.451 424.135C420.063 424.388 419.582 424.45 418.901 424.362Z" fill="#EBE9ED"/>
<path d="M430.637 425.256C430.987 425.039 431.543 424.962 432.188 425.08C431.799 425.316 431.321 425.356 430.637 425.256Z" fill="#EBE9ED"/>
<path d="M425.234 359.234C422.095 355.803 419.164 352.378 416.1 348.678C417.849 346.093 419.527 343.56 421.705 341.574C422.69 340.676 424.938 340.233 426.116 340.739C427.275 341.237 428.605 343.289 428.468 344.503C427.939 349.216 426.856 353.867 425.92 358.895C425.86 359.248 425.443 359.239 425.234 359.234Z" fill="#DA7B33"/>
<path d="M417.64 361.585C417.677 361.676 417.407 361.711 417.281 361.665C417.155 361.62 417.368 361.388 417.434 361.357C417.5 361.325 417.602 361.494 417.64 361.585Z" fill="#DD7F37"/>
<path d="M577.842 346.784C582.437 340.531 587.369 334.425 592.407 328.188C593.426 329.113 594.731 330.296 596.036 331.48C596.557 331.248 597.077 331.016 597.597 330.783C596.784 326.922 595.97 323.06 594.852 317.754C600.149 321.805 604.523 325.151 608.898 328.496C609.288 328.265 609.678 328.034 610.068 327.803C607.434 321.673 604.8 315.543 601.582 308.055C605.862 310.582 609.101 312.494 613.032 314.815C614.214 308.333 609.308 304.936 608.193 299.944C624.138 304.608 636.62 314.651 647.545 326.877C652.412 332.323 651.784 335.261 644.986 337.732C635.877 341.044 626.806 344.889 617.372 346.778C604.475 349.359 591.254 349.431 577.842 346.784Z" fill="#E78377"/>
<path d="M539.726 171.838C543.338 169.39 547.119 167.245 550.861 165.033C562.356 158.238 575.011 155.461 588.119 154.402C593.008 154.007 597.936 153.938 602.843 153.998C607.684 154.057 608.083 157.451 607.014 160.932C605.654 165.361 603.806 169.649 602.013 173.933C597.778 184.055 591.092 192.471 583.19 200.356C583.443 197.758 583.967 195.011 584.719 191.075C581.614 192.827 579.181 194.2 575.753 196.135C576.474 191.089 577.109 186.652 577.744 182.214C577.326 182.005 576.908 181.796 576.49 181.588C574.417 184.058 572.344 186.529 569.846 189.506C569.031 184.456 568.309 179.978 567.587 175.5C567.131 175.462 566.675 175.424 566.219 175.387C565.025 178.261 563.832 181.135 562.085 185.344C560.342 181.42 559.148 178.732 557.506 175.033C555.974 177.404 555.008 178.897 553.851 180.688C549.169 177.814 544.523 174.961 539.726 171.838Z" fill="#E78377"/>
<path d="M517.15 199.699C518.014 198.98 518.949 198.466 520.201 198.012C528.87 204.094 535.528 211.132 535.003 222.423C534.525 232.686 525.777 242.469 515.47 243.619C516.289 242.514 517.476 241.687 518.979 240.92C521.099 239.488 522.905 237.994 525.512 235.838C520.738 236.123 517.284 236.752 513.921 236.432C508.887 235.954 504.218 234.332 501.963 229.071C499.9 224.259 500.365 219.635 503.416 215.46C507.599 209.734 519.317 207.437 525.561 210.923C526.73 211.576 527.897 212.229 529.065 212.882C529.368 212.505 529.671 212.127 529.973 211.75C528.398 210.237 526.823 208.724 525.369 206.876C522.767 204.469 520.044 202.397 517.321 200.325C517.321 200.325 517.221 199.903 517.15 199.699ZM525.51 218.498C525.495 216.823 526.139 214.331 525.312 213.665C524.083 212.675 521.768 212.649 520.01 212.891C519.303 212.989 518.163 215.64 518.386 215.843C519.797 217.123 521.501 218.108 523.193 219.034C523.599 219.257 524.328 218.892 525.51 218.498Z" fill="#3A4735"/>
<path d="M550.389 321.65C549.123 321.93 547.942 321.915 546.77 321.317C548.009 318.194 549.24 315.654 550.706 312.885C551.406 310.368 551.872 308.081 552.178 306.58C547.473 309.36 543.245 312.711 538.435 314.491C532.161 316.814 525.032 313.593 522.094 308.306C518.994 302.727 520.034 296.785 526.03 292.006C529.436 289.292 533.888 287.889 538.291 285.685C535.778 285.246 533.227 284.799 530.309 284.269C526.63 283.941 523.316 283.698 520.002 283.455C520.288 282.974 520.506 282.136 520.871 282.066C531.305 280.069 540.91 281.916 548.667 289.433C555.591 296.142 556.804 304.514 553.785 313.511C552.884 316.195 551.589 318.745 550.389 321.65ZM541.486 289.896C539.708 290.824 537.929 291.753 536.15 292.681C537.016 294.073 537.74 296.48 538.781 296.627C540.498 296.868 543.033 296.177 544.116 294.923C545.852 292.912 544.449 291.071 541.486 289.896Z" fill="#3A4735"/>
<path d="M601.913 239.11C603.457 244.659 604.82 250.141 606.13 255.967C596.474 257.277 586.883 258.379 577.265 259.148C573.009 259.489 568.645 259.542 564.439 258.947C562.68 258.698 560.347 256.655 559.902 254.992C559.594 253.843 561.767 251.111 563.361 250.525C571.762 247.431 580.304 244.707 588.855 242.039C592.701 240.838 596.68 240.064 600.989 238.994C601.379 238.891 601.732 239.043 601.913 239.11Z" fill="#DD7D35"/>
<path d="M606.926 267.201C607.623 269.928 607.894 272.67 608.062 275.79C595.923 276.569 583.857 277.61 571.976 274.555C571.116 274.333 569.985 274.34 569.469 273.786C568.424 272.664 567.137 271.252 567.085 269.915C567.054 269.111 569.095 267.613 570.32 267.478C575.648 266.892 581.019 266.42 586.374 266.421C593.082 266.423 599.79 266.928 606.926 267.201Z" fill="#DD7F37"/>
<path d="M592.758 221.114C594.592 223.846 596.075 226.666 597.618 229.818C588.045 233.739 578.41 237.328 568.775 240.917C567.938 241.229 567.051 241.901 566.277 241.787C564.361 241.506 562.498 240.866 560.613 240.37C561.351 238.719 561.632 236.335 562.905 235.542C569.053 231.714 575.367 228.112 581.831 224.846C585.128 223.18 588.867 222.389 592.758 221.114Z" fill="#DA7B33"/>
<path d="M505.346 276.586C502.575 275.249 499.62 274.191 497.07 272.516C491.918 269.131 486.903 271.266 486.339 277.686C486.062 280.832 486.894 284.076 487.267 287.698C486.711 287.461 485.352 287.267 485.229 286.768C484.278 282.913 480.884 282.104 478.008 280.62C469.216 276.084 467.7 269.679 473.297 261.52C474.982 259.062 476.225 256.3 477.889 253.281C481.156 258.832 481.134 268.664 492.494 267.212C494.849 268.11 496.555 269.862 498.119 269.743C503.371 269.345 504.784 272.368 505.346 276.586ZM483.458 273.848C483.992 271.399 486.016 268.786 482.283 266.957C478.751 265.226 476.098 266.939 474.883 269.672C474.076 271.487 474.546 274.703 475.741 276.348C477.022 278.111 479.825 278.768 482.307 280.09C482.684 277.71 482.936 276.119 483.458 273.848Z" fill="#925433"/>
<path d="M516.386 349.348C515.37 350.29 514.197 351.111 513.368 352.195C511.139 355.112 509.055 358.141 506.543 361.643C503.262 357.088 504.599 352.808 504.62 348.811C504.652 342.752 505.128 336.698 505.326 330.638C505.436 327.301 504.864 323.6 510.702 324.242C512.996 332.755 514.691 341.052 516.386 349.348Z" fill="#DD7F37"/>
<path d="M525.248 207.211C526.823 208.724 528.398 210.237 529.973 211.75C529.671 212.127 529.368 212.505 529.065 212.882C527.897 212.229 526.73 211.576 525.561 210.923C519.317 207.437 507.599 209.734 503.416 215.46C500.365 219.635 499.9 224.259 501.963 229.071C504.218 234.332 508.887 235.954 513.921 236.432C517.284 236.752 520.738 236.123 525.512 235.838C522.905 237.994 521.099 239.488 518.734 240.692C513.296 238.951 508.417 237.499 503.539 236.047C498.788 229.467 496.839 222.417 500.251 214.63C501.063 212.777 502.414 211.161 503.914 209.107C511.13 206.113 517.999 204.127 525.248 207.211Z" fill="#81B762"/>
<path d="M505.583 276.774C504.784 272.368 503.371 269.345 498.119 269.743C496.555 269.862 494.849 268.11 492.865 267.14C493.195 265.436 493.87 263.808 495.158 261.974C497.361 261.263 498.951 260.757 500.541 260.251C499.7 258.329 498.859 256.407 498.019 254.485C500.625 250.392 502.159 250.117 504.908 253.758C509.364 259.661 510.627 266.531 509.639 273.701C509.469 274.94 507.148 275.883 505.583 276.774Z" fill="#B95F46"/>
<path d="M472.821 201.684C470.958 198.032 469.263 194.724 473.372 191.721C473.852 192.155 473.979 192.409 474.106 192.662C473.997 192.235 473.889 191.808 473.781 191.381C473.487 190.678 473.193 189.975 472.87 188.987C473.912 189.008 475.415 188.968 475.984 189.677C481.159 196.129 485.957 202.788 483.559 211.85C480.578 206.224 478.093 200.587 475.543 194.788C475.308 194.642 475.138 194.657 474.969 194.673C475.129 194.818 475.289 194.963 475.425 195.462C475.827 197.228 476.253 198.642 476.679 200.054C478.173 205.005 479.668 209.954 481.162 214.904C479.525 213.516 477.399 212.418 476.364 210.673C474.794 208.026 473.982 204.929 472.821 201.684Z" fill="#DD7F37"/>
<path d="M532.683 352.911C531.085 348.234 529.817 343.476 528.355 338.44C523.404 324.553 517.989 311.252 509.855 299.227C507.948 296.407 506.103 293.544 504.229 290.701C504.739 290.347 505.25 289.994 505.76 289.64C507.928 292.513 510.097 295.385 512.55 298.8C517.276 307.883 521.718 316.426 526.159 324.968C528.677 333.092 531.251 341.2 533.64 349.361C533.936 350.37 533.246 351.667 532.683 352.911Z" fill="#F6C298"/>
<path d="M486.672 186.412C486.229 184.745 485.926 183.387 485.623 182.029C486.008 181.925 486.394 181.821 486.779 181.716C490.898 188.991 491.65 197.278 493.266 205.665C494.03 212.805 494.92 219.637 495.06 226.485C495.176 232.16 494.407 237.854 493.187 243.564C492.45 224.406 491.313 205.368 486.672 186.412Z" fill="#F6C298"/>
<path d="M516.604 349.591C514.691 341.052 512.996 332.755 511.083 324.206C508.736 316.79 506.64 309.615 504.459 302.467C503.605 299.671 502.558 296.934 501.362 293.484C507.236 297.528 516.147 327.93 519.748 354.379C519.779 355.712 519.77 356.663 519.76 357.97C518.78 355.495 517.801 352.664 516.604 349.591Z" fill="#F6C298"/>
<path d="M562.35 280.659C567.342 278.765 571.252 280.275 574.446 283.64C577.261 286.606 575.857 291.147 571.861 291.291C568.643 291.407 565.037 290.533 562.199 288.996C558.374 286.926 558.591 284.023 562.35 280.659Z" fill="#DD7D35"/>
<path d="M560.304 225.51C558.086 227.627 556.188 229.957 553.74 231.027C552.116 231.737 548.623 231.328 547.905 230.193C546.887 228.587 547.189 225.706 547.817 223.641C548.281 222.119 549.954 220.576 551.473 219.856C553.586 218.856 556.928 217.44 558.159 218.349C559.73 219.509 559.72 222.81 560.304 225.51Z" fill="#DA7B33"/>
<path d="M500.802 306.982C503.302 329.52 503.104 347.777 500.449 351.646C499.562 333.106 498.668 314.406 497.774 295.707C498.121 295.652 498.468 295.597 498.815 295.543C499.474 299.221 500.134 302.899 500.802 306.982Z" fill="#F6C298"/>
<path d="M397.509 294.251C397.097 291.241 397.099 288.237 397.142 284.828C401.844 285.337 406.543 286.098 411.138 287.271C412.295 287.566 413.872 289.177 413.879 290.193C413.887 291.229 412.306 293.033 411.233 293.186C406.835 293.816 402.366 293.944 397.509 294.251Z" fill="#DD7F37"/>
<path d="M526.514 324.957C521.718 316.426 517.277 307.883 512.709 299.06C514.076 297.927 515.569 297.074 517.482 296.447C517.934 297.112 517.968 297.551 518.002 298.378C517.398 305.988 520.104 311.67 526.097 316.092C526.492 316.484 526.757 316.667 527 316.848C526.977 316.847 526.98 316.802 527.1 317.089C529.992 318.905 532.764 320.435 535.536 321.965C532.647 322.959 529.758 323.952 526.514 324.957Z" fill="#F2A562"/>
<path d="M475.608 194.949C478.093 200.587 480.578 206.224 483.276 212.107C485.21 218.979 487.078 225.572 488.58 232.247C489.169 234.866 488.94 237.669 489.084 240.389C488.65 240.446 488.215 240.504 487.781 240.561C485.715 232.171 483.648 223.782 481.371 215.148C479.667 209.954 478.173 205.005 476.679 200.054C476.253 198.642 475.827 197.228 475.466 195.423C475.531 195.031 475.608 194.949 475.608 194.949Z" fill="#F6C298"/>
<path d="M398.388 277.112C398.383 274.549 398.796 271.993 399.441 269.188C402.979 269.9 406.359 270.669 409.547 271.924C410.682 272.371 411.351 274 412.233 275.089C411.063 275.779 409.933 276.964 408.715 277.063C405.432 277.329 402.112 277.132 398.388 277.112Z" fill="#DD7D35"/>
<path d="M525.369 206.876C517.999 204.127 511.13 206.113 503.964 208.799C506.681 204.09 510.836 201.022 516.938 200.334C520.043 202.397 522.767 204.469 525.369 206.876Z" fill="#EDEEF1"/>
<path d="M518.002 297.99C517.968 297.551 517.934 297.112 517.759 296.372C518.25 292.042 518.882 288.013 519.759 283.719C523.316 283.698 526.63 283.941 530.19 284.561C524.231 287.326 520.442 292.016 518.002 297.99Z" fill="#EBE9ED"/>
<path d="M503.639 236.378C508.417 237.499 513.296 238.951 518.419 240.631C517.476 241.687 516.289 242.514 515.1 243.668C511.909 246.402 509.278 246.29 507.263 242.443C506.225 240.461 504.922 238.616 503.639 236.378Z" fill="#EBE9ED"/>
<path d="M456.646 197.118C459.287 199.666 462.076 202.435 464.458 205.518C465.8 207.255 466.472 209.51 467.485 211.863C461.563 209.009 458.661 203.56 456.646 197.118Z" fill="#EF9A53"/>
<path d="M497.773 254.692C498.86 256.407 499.7 258.329 500.541 260.251C498.951 260.757 497.361 261.263 495.359 261.757C495.808 259.462 496.667 257.181 497.773 254.692Z" fill="#925433"/>
<path d="M267.974 268.703C263.086 268.709 258.169 268.369 253.248 268.104C243.565 267.582 234.212 268.975 225.385 273.599C228.254 262.943 230.986 252.798 233.768 242.283C238.245 245.007 242.703 248.057 247.089 251.207C251.069 254.065 255.086 256.892 258.874 259.993C262.056 262.598 264.932 265.577 267.974 268.703Z" fill="#F2A562"/>
<path d="M270.447 240.024C272.098 239.752 273.495 239.707 274.891 239.662C274.025 240.948 273.16 242.235 272.076 243.845C272.254 244.039 272.924 244.473 273.125 245.066C273.396 245.867 273.306 246.791 273.37 247.662C272.332 247.493 270.428 247.427 270.394 247.141C270.126 244.868 270.214 242.553 270.447 240.024Z" fill="#EF9A53"/>
<path d="M209.301 340.771C208.663 341.228 208.024 341.366 207.071 341.597C201.797 335.899 196.837 330.106 191.607 324.182C188.552 319.569 185.768 315.086 182.983 310.604C183.382 310.239 183.781 309.874 184.181 309.51C185.236 310.26 186.524 310.822 187.311 311.791C194.375 320.492 201.364 329.254 208.326 338.037C208.843 338.689 208.985 339.64 209.301 340.771Z" fill="#DD7F37"/>
<path d="M190.401 178.76C192.428 179.825 194.582 180.704 196.452 181.996C199.457 184.072 202.272 186.421 205.471 189.044C204.142 194.543 202.336 199.608 200.993 204.793C200.639 206.16 201.714 207.897 202.132 209.464C201.772 213.637 199.758 215.252 195.883 214.757C193.164 214.41 190.407 214.355 187.455 214.155C186.081 212.312 184.433 210.103 182.555 207.438C183.813 203.205 185.639 199.521 186.709 195.628C188.231 190.085 189.197 184.39 190.401 178.76Z" fill="#F09F58"/>
<path d="M190.4 178.369C189.197 184.39 188.231 190.085 186.709 195.628C185.639 199.521 183.812 203.205 182.271 207.299C178.248 207.498 173.575 208.849 172.377 202.573C174.366 190.755 174.515 178.796 181.29 168.249C189.223 168.509 191.149 171.043 190.4 178.369Z" fill="#E78377"/>
<path d="M202.371 209.253C201.714 207.897 200.639 206.16 200.993 204.793C202.336 199.608 204.142 194.543 205.794 189.083C207.014 186.323 208.214 183.912 209.414 181.502C211.827 185.573 208.823 188.89 208.515 192.857C206.522 198.482 204.566 203.762 202.371 209.253Z" fill="#DD7D35"/>
<path d="M380.983 167.867C379.477 164.655 378.285 161.304 377.068 157.594C381.506 156.888 385.964 156.362 390.43 156.292C391.947 156.268 393.482 157.397 395.008 157.999C394.141 159.649 393.69 162.012 392.324 162.808C388.867 164.823 385 166.135 380.983 167.867Z" fill="#DA7B33"/>
<path d="M390.912 189.54C388.838 186.284 387.058 182.887 385.249 179.155C389.088 178.496 392.957 177.921 396.819 177.974C398.316 177.994 400.271 179.121 401.084 180.358C401.5 180.991 400.185 183.384 399.081 184.269C396.648 186.219 393.852 187.717 390.912 189.54Z" fill="#DA7B33"/>
<path d="M382.682 192.245C385.891 197.498 389.1 202.752 392.416 208.304C386.586 206.729 380.647 204.855 374.313 202.857C374.273 199.789 374.627 196.844 375.461 193.537C378.188 192.865 380.435 192.555 382.682 192.245Z" fill="#EF9A53"/>
<path d="M372.533 204.666C371.168 204.206 369.684 203.454 368.124 202.371C369.096 202.13 370.145 202.22 371.46 202.46C371.955 203.198 372.185 203.787 372.533 204.666Z" fill="#EF9A53"/>
<path d="M197 154.383C197.653 157.152 198.405 159.624 198.464 162.113C198.554 165.948 196.352 167.085 192.942 165.486C190.449 164.316 187.832 163.406 185.253 162.425C182.177 161.255 181.708 159.018 182.762 156.253C185.127 150.048 191.774 149.043 197 154.383Z" fill="#E78377"/>
<path d="M194.252 135.687C195.801 135.586 197.859 135.28 198.234 135.937C199.033 137.334 199.657 139.542 199.075 140.851C198.222 142.771 196.37 144.343 194.661 145.712C194.291 146.009 192.113 145.045 191.817 144.264C190.617 141.101 191.041 138.115 194.252 135.687Z" fill="#E78377"/>
<path d="M209.034 148.627C208.517 149.914 208.385 151.331 207.675 151.739C206.258 152.552 204.388 153.4 202.971 153.075C202.137 152.883 200.965 150.019 201.429 149.142C202.518 147.083 204.499 145.496 206.118 143.719C207.131 145.246 208.144 146.773 209.034 148.627Z" fill="#E78377"/>
<path d="M186.873 146.988C185.368 147.532 184.017 147.752 182.667 147.972C182.484 145.737 181.957 143.448 182.29 141.293C182.421 140.443 184.471 139.89 185.648 139.202C186.328 140.526 187.284 141.789 187.598 143.195C187.834 144.257 187.248 145.501 186.873 146.988Z" fill="#E78377"/>
<path d="M197.7 350.992C194.992 353.683 192.224 356.043 189.179 358.517C186.128 353.301 183.251 348.019 180.703 342.582C180.355 341.839 181.442 339.54 182.228 339.332C183.925 338.882 186.555 338.58 187.569 339.532C191.204 342.945 194.325 346.906 197.7 350.992Z" fill="#DD7D35"/>
<path d="M414.127 111.343C415.211 109.665 416.313 108.327 417.583 106.749C418.821 106.906 420.254 106.998 420.898 107.758C423.295 110.586 422.75 120.595 420.247 123.559C416.444 128.063 410.227 129.589 405.247 127.241C402.118 125.765 400.459 121.244 401.844 117.966C403.091 115.016 407.574 113.655 411.206 115.125C412.484 115.642 413.762 116.158 415.945 117.041C415.115 114.572 414.63 113.128 414.127 111.343Z" fill="#EF9C56"/>
<path d="M310.128 309.646C310.084 314.091 309.997 318.712 309.385 323.262C309.127 325.185 307.762 326.958 306.9 328.8C306.496 328.635 306.092 328.471 305.688 328.307C306.074 323.546 306.46 318.785 306.845 313.608C307.853 312.06 308.863 310.927 310.128 309.646Z" fill="#DA7B33"/>
<path d="M157.973 374.165C159.171 373.786 160.413 373.709 162.028 373.626C161.53 376.961 160.116 377.49 157.973 374.165Z" fill="#E16B86"/>
<path d="M165.253 372.937C165.743 372.379 166.396 372.047 167.328 371.657C166.876 372.121 166.146 372.641 165.253 372.937Z" fill="#E16B86"/>
<path d="M324.999 308.843C321.747 306.989 318.712 304.919 314.839 302.275C321.146 301.564 324.046 303.686 324.999 308.843Z" fill="#DD7F37"/>
<path d="M535.913 321.982C532.764 320.435 529.992 318.905 527.483 317.016C533.415 318.007 539.068 318.958 544.599 316.091C546.547 315.081 548.513 314.106 550.472 313.115C549.241 315.654 548.01 318.194 546.65 321.034C546.236 321.391 546.041 321.556 545.884 322.021C542.65 322.143 539.47 322.071 535.913 321.982Z" fill="#EBE9ED"/>
<path d="M394.977 253.664C393.926 261.207 392.492 268.918 391.354 276.673C390.625 281.645 390.332 286.682 389.816 292.072C386.856 291.371 383.925 290.288 380.451 289.005C375.715 302.006 376.138 314.641 383.399 327.077C382.771 327.25 382.144 327.423 381.516 327.597C380.496 326.315 379.281 325.142 378.49 323.732C374.67 316.922 372.294 309.793 374.414 301.868C376.485 294.126 378.602 286.397 380.712 278.327C385.391 269.945 390.055 261.897 394.977 253.664Z" fill="#DD7F37"/>
<path d="M392.695 362.852C387.227 363.999 381.692 364.801 375.778 365.566C373.154 359.555 370.903 353.583 368.671 347.603C368.464 347.049 368.206 346.429 368.268 345.873C368.636 342.565 367.867 338.33 371.812 336.986C376.002 335.558 377.648 339.435 379.539 342.277C383.171 347.734 386.864 353.151 390.484 358.616C391.299 359.846 391.918 361.206 392.695 362.852Z" fill="#DD7D35"/>
<path d="M416.002 361.461C414.155 361.886 412.302 361.992 410.057 362.034C410.185 360.025 410.705 358.078 411.379 355.821C413.02 357.387 414.509 359.264 416.002 361.461Z" fill="#DD7F37"/>
<path d="M382.624 191.927C380.435 192.555 378.188 192.865 375.629 193.158C375.043 187.151 374.771 181.161 374.55 174.758C377.257 180.1 379.912 185.854 382.624 191.927Z" fill="#DD7F37"/>
<path d="M525.209 218.647C524.327 218.892 523.599 219.257 523.193 219.034C521.501 218.108 519.797 217.123 518.386 215.843C518.163 215.64 519.303 212.989 520.01 212.891C521.768 212.649 524.083 212.675 525.312 213.665C526.139 214.331 525.495 216.823 525.209 218.647Z" fill="#EBE9ED"/>
<path d="M550.706 312.885C548.513 314.106 546.547 315.081 544.599 316.091C539.068 318.958 533.415 318.007 527.363 316.729C526.98 316.802 526.977 316.847 526.938 316.594C526.589 316.189 526.278 316.036 525.967 315.883C520.103 311.67 517.398 305.988 518.002 298.378C520.442 292.016 524.23 287.326 530.556 284.646C533.227 284.799 535.778 285.246 538.291 285.685C533.888 287.889 529.436 289.292 526.03 292.006C520.034 296.785 518.994 302.727 522.094 308.306C525.032 313.593 532.161 316.814 538.435 314.491C543.245 312.711 547.473 309.36 552.178 306.58C551.872 308.081 551.406 310.368 550.706 312.885Z" fill="#81B762"/>
<path d="M541.82 289.999C544.449 291.071 545.852 292.912 544.116 294.923C543.033 296.177 540.498 296.868 538.781 296.627C537.74 296.48 537.016 294.073 536.15 292.681C537.929 291.753 539.708 290.824 541.82 289.999Z" fill="#EBE9ED"/>
<path d="M483.323 274.188C482.936 276.119 482.684 277.71 482.307 280.09C479.825 278.768 477.022 278.111 475.741 276.348C474.546 274.703 474.076 271.487 474.883 269.672C476.098 266.939 478.751 265.226 482.283 266.957C486.016 268.786 483.992 271.4 483.323 274.188Z" fill="#B95F46"/>
<path d="M473.76 191.397C473.889 191.808 473.997 192.235 474.106 192.662C473.979 192.409 473.852 192.155 473.713 191.675C473.701 191.449 473.739 191.414 473.76 191.397Z" fill="#EF9A53"/>
<path d="M475.49 195.069C475.289 194.963 475.129 194.818 474.969 194.673C475.138 194.657 475.308 194.642 475.543 194.788C475.608 194.949 475.531 195.031 475.49 195.069Z" fill="#F6C298"/>
<path d="M526.097 316.092C526.278 316.036 526.588 316.189 526.96 316.596C526.757 316.667 526.492 316.484 526.097 316.092Z" fill="#EBE9ED"/>
<path d="M327.603 386.679C328.712 382.305 329.87 378.289 331.197 373.641C332.573 369.415 333.78 365.822 335.198 361.983C339.061 353.104 342.714 344.47 346.548 335.559C347.512 333.493 348.412 331.745 349.057 329.908C353.434 317.458 357.758 304.989 362.293 292.248C368.653 268.719 366.348 246.701 352.798 226.386C345.303 215.147 337.667 204.003 330.094 192.816C320.631 172.471 319.613 151.499 325.841 129.626C329.69 127.835 333.332 126.797 336.519 124.968C345.903 119.584 355.108 113.885 364.675 108.447C365.76 109.798 366.553 111.011 367.184 112.468C356.572 120.922 345.105 127.373 332.526 132.616C331.047 140.249 329.306 147.707 328.877 155.239C328.031 170.077 332.601 183.585 340.767 196.283C342.587 199.227 344.343 201.833 346.043 204.474C352.279 214.16 359.112 223.525 364.579 233.628C373.258 249.664 373.65 267.159 371.241 285.149C366.729 299.025 362.636 312.672 357.974 326.122C355.081 334.466 351.324 342.511 347.7 350.875C344.892 357.983 342.339 364.905 339.552 372.043C335.308 381.4 333.294 390.991 333.637 400.943C334.013 411.867 340.192 418.855 351.345 421.575C367.376 422.381 383.131 422.975 399.286 423.701C406.024 423.96 412.362 424.085 418.901 424.362C419.582 424.45 420.064 424.388 420.932 424.463C424.357 424.772 427.394 424.945 430.637 425.256C431.321 425.356 431.799 425.316 432.658 425.429C444.639 426.943 456.025 428.964 465.565 436.532C462.736 437.705 460.032 438.599 457.327 439.492C449.525 434.243 440.447 433.538 431.536 432.543C423.636 431.661 415.667 431.389 406.958 430.809C394.308 430.698 382.403 431.098 370.562 430.401C361.639 429.876 352.8 427.948 343.923 426.644C330.314 421.025 324.968 408.164 325.978 394.342C326.158 391.88 327.075 389.471 327.603 386.679Z" fill="#643B6A"/>
<path d="M313.79 18.1295C315.371 16.8306 316.951 15.5318 318.979 14.4792C327.251 22.3622 335.43 29.6735 342.815 37.7141C353.204 49.0261 361.681 61.7609 368.211 76.0263C367.144 77.7547 366.128 79.1518 364.906 80.3763C363.671 80.0038 362.44 79.3311 361.642 79.6726C340.367 88.7834 318.114 92.5477 295.063 92.0822C294.437 90.2587 293.81 88.4352 293.621 86.2983C317.279 87.3215 339.518 83.4875 361.147 73.7089C360.011 71.6728 358.929 70.2168 358.341 68.583C356.997 64.8454 354.775 64.3878 351.351 65.9187C347.531 67.6268 343.577 69.0689 339.605 70.3978C323.939 75.6388 307.874 77.6318 291.4 76.0423C291.213 74.4347 291.026 72.8271 291.297 70.8803C299.303 70.5411 306.851 70.5411 315.002 70.5411C313.024 64.6347 310.985 59.4937 309.598 54.1826C307.483 46.0888 305.819 37.8772 303.964 29.7157C305.094 28.0392 306.224 26.3628 307.872 24.7057C308.754 25.8311 309.191 26.9191 309.473 28.046C312.441 39.94 315.099 51.9214 318.45 63.7063C320.256 70.0608 320.79 69.9266 327.083 68.3266C328.048 68.0815 328.953 67.6069 329.217 67.5027C325.718 54.3205 322.031 41.5382 319.059 28.5918C318.111 24.4606 316.997 20.8972 313.79 18.1295ZM345.439 49.4745C339.044 42.263 332.65 35.0515 326.255 27.84C325.179 36.4951 332.408 60.1591 336.769 65.9328C341.872 64.0425 347.093 62.1088 353.062 59.8979C350.185 55.9933 347.983 53.0054 345.439 49.4745Z" fill="#683765"/>
<path d="M360.332 0C371.79 14.165 382.871 28.2583 394.112 42.5549C398.85 35.3059 401.528 26.1701 405.062 17.0361C406.75 18.0996 408.253 19.4692 409.583 21.3331C406.723 28.2922 404.454 34.9745 401.231 41.1596C398.112 47.1459 394.506 52.6267 400.668 58.7376C401.014 59.0814 400.909 59.8811 400.597 60.4975C398.826 60.5413 397.472 60.5562 395.891 60.3798C394.412 58.8595 393.161 57.5307 391.578 56.1417C390.158 55.1437 389.071 54.2057 387.984 53.2677C389.27 50.5125 389.026 48.1868 387.413 45.332C378.656 29.8393 368.127 15.7817 355.145 3.58105C354.294 2.78133 353.67 1.73971 352.88 0.514518C355.197 0.121662 357.576 0.0249494 360.332 0Z" fill="#683765"/>
<path d="M387.733 53.4332C389.071 54.2056 390.158 55.1435 391.468 56.4353C390.217 58.7493 388.743 60.7095 387.27 62.6697C386.252 61.6729 385.234 60.6761 383.872 59.6749C384.847 57.6465 386.164 55.6226 387.733 53.4332Z" fill="#6D3968"/>
<path d="M365.112 80.5488C366.128 79.1517 367.144 77.7546 368.516 76.0767C371.621 73.3627 374.37 70.9296 377.181 68.8187C378.432 70.1189 379.619 71.0968 380.561 72.2731C378.271 74.8424 376.109 77.1245 374.237 79.6246C373.408 80.7319 372.432 82.5338 372.793 83.5828C374.117 87.4269 375.974 91.0872 377.924 95.4778C381.359 91.8237 384.187 88.8151 387.299 85.9409C388.335 87.9624 389.088 89.8494 389.532 91.8491C379.784 99.0567 378.68 102.838 383.654 111.922C385.847 110.11 387.96 108.276 390.167 106.564C392.935 104.417 394.156 101.874 392.947 98.4563C394.881 97.8355 396.487 97.2185 398.361 96.5972C398.985 96.565 399.342 96.537 399.832 96.8013C401.175 97.8802 402.385 98.6669 403.487 99.7645C400.542 102.845 400.014 105.992 401.691 109.596C402.177 110.641 402.346 111.835 402.499 113.214C400.862 114.765 399.385 116.064 397.787 117.056C397.043 114.48 396.421 112.21 395.738 109.718C392.398 112.3 389.14 114.64 386.13 117.267C385.342 117.954 384.947 119.556 385.027 120.691C385.312 124.711 385.881 128.71 386.342 132.718C384.734 133.307 383.126 133.896 381.134 134.125C380.297 130.78 379.845 127.794 379.33 124.391C371.639 129.147 364.468 133.581 356.917 138.061C353.339 137.606 350.142 137.104 347.275 136.469C355.934 131.349 364.361 126.516 372.565 121.33C379.284 117.083 379.577 113.712 374.371 106.872C372.03 108.656 369.688 110.44 367.346 112.224C366.553 111.011 365.76 109.798 364.849 108.194C366.783 106.06 368.941 104.423 370.841 102.527C371.704 101.666 372.79 100.059 372.514 99.1901C371.243 95.1902 369.527 91.3316 368.115 87.7825C358.118 94.7068 349.038 101.554 339.4 107.498C331.405 112.428 322.754 116.294 314.393 120.632C312.743 119.229 311.093 117.825 309.708 116.079C319.136 112.892 327.304 108.117 335.316 102.789C324.167 106.454 312.773 105.746 301.44 105.735C300.431 104.124 299.423 102.513 298.788 100.555C316.402 101.296 333.173 99.0752 349.425 93.1292C356.08 90.6947 361.023 86.1631 365.112 80.5488Z" fill="#6D3968"/>
<path d="M377.118 68.4965C374.37 70.9296 371.622 73.3627 368.568 75.7454C361.681 61.7609 353.204 49.0261 342.815 37.7141C335.43 29.6735 327.251 22.3622 319.283 14.4077C322.814 11.7573 326.488 9.4247 330.716 7.27573C350.289 22.6389 365.587 40.8819 376.463 62.6991C377.278 64.3341 376.927 66.5504 377.118 68.4965Z" fill="#E26183"/>
<path d="M336.385 4.39626C341.617 2.97117 346.849 1.54606 352.511 0.465721C353.67 1.7396 354.294 2.78133 355.145 3.58105C368.127 15.7817 378.656 29.8393 387.413 45.332C389.026 48.1868 389.27 50.5124 387.733 53.4332C386.164 55.6226 384.847 57.6465 383.201 59.6852C381.695 58.444 380.209 57.3621 379.386 55.9057C368.193 36.104 354.464 18.4398 336.385 4.39626Z" fill="#E26183"/>
<path d="M314.516 120.906C322.754 116.294 331.405 112.428 339.4 107.498C349.038 101.554 358.118 94.7068 368.115 87.7825C369.527 91.3316 371.243 95.1902 372.514 99.1901C372.79 100.059 371.704 101.666 370.841 102.527C368.941 104.423 366.783 106.061 364.557 108.056C355.108 113.885 345.903 119.584 336.519 124.968C333.332 126.797 329.69 127.835 325.967 129.287C321.998 126.621 318.318 123.901 314.516 120.906Z" fill="#E26183"/>
<path d="M360.708 0.0717133C377.482 -0.000601013 392.422 4.97877 404.992 16.7595C401.527 26.17 398.85 35.3059 394.112 42.5549C382.871 28.2583 371.79 14.165 360.708 0.0717133Z" fill="#E46885"/>
<path d="M336.074 4.43404C354.464 18.4399 368.193 36.104 379.386 55.9057C380.209 57.3621 381.695 58.444 383.544 59.6897C385.234 60.6761 386.252 61.6729 387.182 62.9706C386.721 65.1654 385.574 67.335 386.131 68.8981C387.435 72.5602 389.555 75.9317 391.744 80.1997C392.927 78.6717 393.646 77.7432 394.661 76.9472C396.003 77.9849 397.05 78.8901 398.022 80.0863C394.167 84.2079 394.134 88.3261 396.829 92.7885C397.504 93.9062 397.686 95.3224 398.094 96.6015C396.487 97.2186 394.881 97.8356 392.845 98.1461C391.557 95.8052 390.699 93.7709 389.841 91.7365C389.088 89.8495 388.335 87.9625 387.311 85.6028C384.962 80.7783 382.884 76.4265 380.807 72.0748C379.62 71.0969 378.432 70.1189 377.181 68.8187C376.927 66.5504 377.278 64.3341 376.463 62.6991C365.587 40.8819 350.289 22.639 331.032 7.21435C332.449 6.13676 334.106 5.30429 336.074 4.43404Z" fill="#683765"/>
<path d="M291.369 76.4205C307.875 77.6318 323.939 75.6388 339.605 70.3978C343.577 69.0689 347.531 67.6268 351.351 65.9187C354.775 64.3878 356.997 64.8454 358.341 68.583C358.929 70.2168 360.011 71.6728 361.147 73.7089C339.518 83.4875 317.279 87.3216 293.679 85.9652C292.645 82.8964 291.991 79.8476 291.369 76.4205Z" fill="#DD6382"/>
<path d="M303.705 29.8799C305.819 37.8771 307.483 46.0888 309.598 54.1826C310.985 59.4937 313.024 64.6347 315.002 70.5411C306.851 70.5411 299.303 70.541 291.391 70.5471C290.316 55.5626 294.869 42.1863 303.705 29.8799Z" fill="#E26183"/>
<path d="M364.906 80.3763C361.023 86.1631 356.08 90.6947 349.425 93.1292C333.173 99.0752 316.402 101.296 298.706 100.236C297.183 97.7679 296.116 95.2713 295.056 92.4285C318.114 92.5476 340.367 88.7834 361.642 79.6726C362.44 79.3311 363.671 80.0038 364.906 80.3763Z" fill="#DD6382"/>
<path d="M313.528 18.2407C316.998 20.8973 318.111 24.4606 319.059 28.5918C322.031 41.5382 325.718 54.3205 329.217 67.5027C328.953 67.6069 328.048 68.0815 327.083 68.3266C320.79 69.9266 320.256 70.0608 318.45 63.7063C315.099 51.9214 312.441 39.94 309.473 28.046C309.191 26.9191 308.754 25.8312 308.118 24.5179C309.652 22.3244 311.459 20.3381 313.528 18.2407Z" fill="#DD6382"/>
<path d="M401.014 60.4685C400.909 59.881 401.014 59.0814 400.668 58.7376C394.506 52.6267 398.112 47.1459 401.231 41.1596C404.454 34.9745 406.723 28.292 409.701 21.6084C413.116 25.1505 416.241 28.9113 419.187 33.126C418.18 34.9902 417.27 36.3595 416.536 37.8178C412.837 45.1744 409.128 52.5271 405.543 59.9397C404.192 62.735 402.803 62.6815 401.014 60.4685Z" fill="#E26183"/>
<path d="M422.438 39.5766C424.236 44.7008 426.034 49.825 427.58 55.5471C422.918 63.5671 418.568 71.0265 414.038 78.375C413.277 79.6103 411.736 80.3654 410.518 81.0124C409.583 78.464 408.978 76.0619 407.721 74.07C405.829 71.0708 406.438 68.8256 408.26 65.9618C411.625 60.6732 414.437 55.029 417.405 49.4933C419.156 46.2272 420.765 42.8847 422.438 39.5766Z" fill="#E46885"/>
<path d="M422.41 39.2666C420.765 42.8846 419.156 46.2272 417.405 49.4933C414.437 55.029 411.625 60.6732 408.26 65.9618C406.438 68.8256 405.829 71.0708 407.721 74.07C408.978 76.0619 409.584 78.4639 410.504 81.0268C410.527 81.3713 410.498 81.4006 410.168 81.365C407.912 80.4397 405.985 79.55 403.855 78.4558C403.011 77.4548 402.37 76.6582 401.687 75.8074C400.225 77.4303 399.161 78.6127 398.096 79.7952C397.05 78.89 396.004 77.9848 394.78 76.6626C398.673 71.8935 400.394 67.2521 396.43 61.8653C396.187 61.5359 396.216 61.007 396.119 60.5709C397.473 60.556 398.826 60.5413 400.597 60.4975C402.803 62.6816 404.192 62.735 405.543 59.9397C409.128 52.5271 412.837 45.1744 416.536 37.8178C417.27 36.3595 418.18 34.9901 419.28 33.4046C420.496 35.1385 421.439 37.0477 422.41 39.2666Z" fill="#6D3968"/>
<path d="M428.665 66.7038C428.466 71.8087 429.015 77.0862 427.888 81.977C426.295 88.8855 423.462 95.508 420.845 102.665C419.609 103.422 418.687 103.767 417.545 103.834C415.943 98.5321 414.561 93.5092 413.428 88.3168C418.673 80.9995 423.669 73.8516 428.665 66.7038Z" fill="#E16B86"/>
<path d="M301.484 106.038C312.773 105.746 324.167 106.454 335.316 102.789C327.304 108.117 319.136 112.892 309.608 115.793C306.671 112.68 304.099 109.51 301.484 106.038Z" fill="#DD6382"/>
<path d="M428.749 66.3152C423.669 73.8515 418.672 80.9993 413.152 88.1611C411.918 85.9169 411.208 83.6588 410.497 81.4007C410.497 81.4007 410.527 81.3713 410.541 81.3568C411.736 80.3653 413.277 79.6103 414.038 78.375C418.568 71.0265 422.918 63.567 427.557 55.8949C428.135 59.0721 428.484 62.4995 428.749 66.3152Z" fill="#6D3968"/>
<path d="M347.275 136.469C342.458 135.334 337.971 134.065 333.17 132.635C345.105 127.373 356.572 120.922 367.184 112.468C369.688 110.44 372.03 108.656 374.371 106.872C379.577 113.712 379.284 117.083 372.565 121.33C364.361 126.516 355.934 131.349 347.275 136.469Z" fill="#DD6382"/>
<path d="M374.602 174.345C370.629 162.529 366.656 150.714 362.445 138.191C361.584 138.191 359.83 138.191 357.687 138.103C364.468 133.581 371.639 129.147 379.33 124.391C379.845 127.794 380.297 130.78 380.804 134.124C378.787 135.153 376.717 135.832 374.641 136.491C372.166 137.276 370.269 138.127 371.511 141.521C373.375 146.616 374.799 151.872 376.751 157.506C378.284 161.304 379.477 164.655 380.67 168.006C382.029 171.477 383.389 174.947 385.012 178.954C387.057 182.887 388.838 186.284 390.619 189.681C393.887 195.795 397.155 201.909 400.566 208.31C398.103 213.089 396.065 213.229 392.577 208.571C389.099 202.752 385.891 197.498 382.624 191.927C379.912 185.854 377.257 180.1 374.602 174.345Z" fill="#E46885"/>
<path d="M397.787 117.056C398.188 120.133 398.467 122.904 398.798 126.034C394.888 128.483 390.926 130.573 386.653 132.69C385.881 128.71 385.312 124.711 385.027 120.691C384.947 119.556 385.342 117.954 386.13 117.267C389.14 114.64 392.398 112.3 395.738 109.718C396.421 112.21 397.043 114.48 397.787 117.056Z" fill="#DD6382"/>
<path d="M345.61 49.7459C347.983 53.0053 350.185 55.9933 353.062 59.8979C347.093 62.1088 341.872 64.0425 336.769 65.9328C332.408 60.1591 325.179 36.4951 326.255 27.84C332.65 35.0515 339.044 42.2629 345.61 49.7459Z" fill="#E26183"/>
<path d="M410.168 81.365C411.208 83.6587 411.918 85.9169 412.904 88.3305C414.561 93.509 415.943 98.5321 417.545 103.834C417.755 104.709 417.746 105.306 417.576 106.446C416.313 108.327 415.211 109.665 414.108 111.002C413.775 111.013 413.441 111.024 412.775 110.699C411.296 105.478 410.148 100.594 408.814 94.9123C406.429 96.9873 405.012 98.2204 403.595 99.4536C402.385 98.6669 401.176 97.8802 399.968 96.5411C404.813 91.57 408.865 86.9481 404.235 79.9881C404.013 79.6542 404.11 79.1077 404.059 78.6603C405.985 79.55 407.912 80.4397 410.168 81.365Z" fill="#683765"/>
<path d="M380.561 72.2731C382.884 76.4264 384.962 80.7781 387.027 85.4681C384.187 88.815 381.359 91.8237 377.924 95.4778C375.974 91.0872 374.117 87.4269 372.793 83.5828C372.432 82.5338 373.408 80.7319 374.237 79.6246C376.109 77.1245 378.271 74.8424 380.561 72.2731Z" fill="#DD6382"/>
<path d="M389.532 91.8491C390.699 93.7707 391.557 95.8052 392.518 98.1499C394.156 101.875 392.935 104.417 390.167 106.564C387.96 108.276 385.847 110.11 383.654 111.922C378.68 102.838 379.784 99.0567 389.532 91.8491Z" fill="#DD6382"/>
<path d="M403.855 78.4558C404.11 79.1077 404.013 79.6542 404.235 79.9881C408.865 86.9481 404.813 91.5702 399.835 96.249C399.342 96.5372 398.985 96.565 398.361 96.5972C397.686 95.3224 397.504 93.9062 396.829 92.7885C394.134 88.3261 394.167 84.2079 398.022 80.0863C399.16 78.6129 400.225 77.4303 401.687 75.8074C402.37 76.6582 403.011 77.4548 403.855 78.4558Z" fill="#DD6382"/>
<path d="M403.487 99.7645C405.012 98.2205 406.429 96.9873 408.814 94.9123C410.148 100.594 411.295 105.478 412.526 110.721C409.509 111.662 406.409 112.245 402.985 112.894C402.346 111.835 402.177 110.641 401.691 109.596C400.014 105.992 400.542 102.845 403.487 99.7645Z" fill="#E26183"/>
<path d="M387.182 62.9706C388.743 60.7096 390.217 58.7493 391.8 56.4954C393.161 57.5306 394.412 58.8595 395.891 60.3798C396.216 61.0072 396.187 61.5359 396.43 61.8653C400.394 67.2521 398.673 71.8936 394.483 76.5301C393.646 77.7431 392.927 78.6717 391.744 80.1997C389.555 75.9317 387.435 72.5602 386.131 68.8981C385.574 67.335 386.721 65.1654 387.182 62.9706Z" fill="#DD6382"/>
<path d="M395.234 253.478C395.845 251.68 396.455 249.882 397.09 247.765C398.882 248.695 400.649 249.943 402.514 251.476C401.634 257.23 400.656 262.701 399.444 268.803C398.796 271.993 398.383 274.549 397.97 277.105C397.684 279.298 397.399 281.49 397.107 284.457C397.1 288.237 397.097 291.241 397.095 294.246C398.138 313.918 404.408 331.805 415.858 348.501C419.164 352.378 422.095 355.803 425.025 359.228C422.748 359.863 420.471 360.497 417.781 361.26C417.368 361.388 417.155 361.62 416.875 361.71C416.399 361.795 416.203 361.788 416.002 361.461C414.509 359.264 413.02 357.387 411.531 355.511C407.536 348.174 403.306 340.953 399.6 333.472C393.338 320.837 390.702 307.241 389.836 292.473C390.332 286.682 390.625 281.645 391.354 276.673C392.492 268.918 393.926 261.207 395.234 253.478Z" fill="#E46885"/>
<path d="M456.995 439.638C460.032 438.599 462.736 437.705 465.958 436.527C479.762 434.915 493.084 433.877 506.322 432.177C519.404 430.498 532.473 428.513 545.4 425.925C551.029 424.798 556.57 422.342 561.644 419.563C567.35 416.438 567.076 412.215 561.365 409.176C558.211 407.497 554.823 405.827 551.356 405.237C530.809 401.74 510.214 398.511 489.621 395.286C466.491 391.662 444.533 385.136 425.812 369.797C423.012 366.909 420.345 364.292 417.64 361.585C417.602 361.494 417.501 361.325 417.847 361.228C420.471 360.497 422.748 359.863 425.234 359.234C425.443 359.239 425.86 359.248 425.988 359.509C427.395 360.746 428.674 361.723 429.953 362.701C431.99 364.788 433.743 367.294 436.109 368.895C450.91 378.909 467.494 384.464 484.988 387.239C501.997 389.937 519.091 392.105 536.527 394.482C544.037 396.249 551.298 397.651 558.246 399.984C562.112 401.283 565.867 403.67 568.945 406.388C574.426 411.228 574.484 418.166 568.826 422.836C564.859 426.11 560.099 428.798 555.262 430.575C539.754 436.276 523.375 437.623 507.082 439.335C495.453 440.557 483.859 442.106 471.636 443.495C468.771 444.052 466.52 444.624 464.269 445.195C460.083 447.105 455.505 448.46 451.809 451.065C447.196 454.317 447.243 459.355 451.008 463.579C451.705 464.362 452.88 464.933 453.167 465.818C453.651 467.311 454.306 469.606 453.592 470.404C452.78 471.312 450.217 471.626 448.984 471.027C441.953 467.614 439.12 457.112 443.04 450.349C446.168 444.954 451.32 442.27 456.995 439.638Z" fill="#E36B86"/>
<path d="M60.9393 281.639C79.7443 282.192 97.7678 284.991 115.341 290.524C115.892 290.697 116.529 290.595 117.584 290.942C120.464 292.331 122.885 293.4 125.305 294.468C126.701 295.795 128.038 297.191 129.502 298.438C136.635 304.513 137.092 312.087 129.832 317.982C125.489 321.509 120.125 323.793 115.168 326.544C113.497 327.472 111.669 328.118 109.663 329.171C106.28 328.538 103.147 327.627 99.5034 326.498C98.4869 325.845 97.9804 325.407 97.7013 324.731C104.979 321.982 112.144 319.745 119.033 316.852C122.784 315.277 127.966 313.377 127.618 308.664C127.226 303.351 121.64 301.682 117.316 299.639C116.552 299.278 115.547 299.426 114.519 299.076C111.237 297.627 108.088 296.441 104.604 295.132C90.8606 293.003 77.4528 290.998 64.0451 288.992C47.6572 288.08 31.6532 289.583 16.7118 297.018C14.3601 298.188 12.2006 300.026 10.4009 301.97C5.58101 307.177 6.1334 311.178 11.9212 315.415C13.8689 316.841 16.2525 318.143 14.3604 321.137C12.3909 324.254 10.0585 322.871 7.77837 321.503C-0.952131 316.266 -2.6176 305.584 4.23182 297.966C12.0772 289.24 22.5472 285.487 33.658 283.806C42.5158 282.466 51.5598 282.357 60.9393 281.639Z" fill="#E16B86"/>
<path d="M149.01 381.858C149.01 381.858 148.912 382.212 148.881 382.393C131.014 383.393 113.167 385.065 95.3481 384.807C74.7959 384.509 54.181 382.867 34.7224 375.206C30.6175 373.589 26.5949 371.147 23.3004 368.223C17.1173 362.734 16.5348 354.566 22.7661 349.23C28.8125 344.052 36.2378 340.484 43.3774 336.116C44.2028 338.152 44.7084 340.282 44.9823 342.973C39.3579 346.677 33.5728 349.313 28.6846 353.105C23.942 356.785 24.3845 360.816 29.1389 364.168C31.9217 366.13 34.9773 368.142 38.2063 368.954C49.0576 371.683 59.9786 374.254 71.0014 376.132C76.6125 377.088 82.4978 376.433 88.2592 376.507C88.8074 376.675 89.3557 376.844 90.5749 377.105C96.3242 377.479 101.402 377.761 106.481 378.042C110.824 377.966 115.167 377.889 120.2 377.567C124.215 377.276 127.539 377.231 130.864 377.186C135.126 376.685 139.389 376.184 144.01 375.993C144.189 377.312 144.01 378.322 143.836 379.305C145.63 380.19 147.32 381.024 149.01 381.858Z" fill="#E16B86"/>
<path d="M305.838 302.777C306.372 302.474 306.751 302.422 307.744 302.364C313.501 303.472 311.595 306.584 310.128 309.646C308.863 310.927 307.853 312.06 306.566 313.318C288.872 330.179 268.921 343.157 247.161 353.497C243.693 355.145 240.48 357.329 237.148 359.265C233.333 360.428 229.421 361.343 225.719 362.796C205.196 370.852 184.087 376.704 161.788 379.85C160.766 379.877 160.246 380.122 159.727 380.367C156.411 380.886 153.095 381.405 149.395 381.891C147.32 381.024 145.63 380.19 143.836 379.305C144.01 378.322 144.189 377.312 144.375 375.99C146.496 375.584 148.609 375.492 151.323 375.639C153.017 375.445 154.112 375.009 155.467 374.451C156.461 374.174 157.195 374.018 157.973 374.165C160.116 377.49 161.53 376.961 162.599 373.402C163.561 373.026 164.326 372.869 165.253 372.937C166.146 372.641 166.876 372.121 167.716 371.457C168.009 371.152 168.222 371.052 168.719 371.265C170 371.523 171.093 371.771 172.043 371.506C186.629 367.435 201.233 363.424 215.742 359.095C219.823 357.877 223.613 355.68 227.537 353.933C235.067 350.704 242.961 348.119 250.044 344.102C261.855 337.404 273.533 330.324 284.524 322.377C292.218 316.813 298.674 309.539 305.838 302.777Z" fill="#E46885"/>
<path d="M125.587 294.297C122.885 293.4 120.464 292.331 117.924 290.946C119.973 289.291 122.168 287.996 124.302 286.607C134.123 280.213 135.74 270.261 128.056 261.314C121.509 253.691 112.739 249.405 103.329 246.406C89.2735 241.926 75.1222 241.016 60.6328 245.858C57.1649 247.897 53.5572 249.284 50.8372 251.679C46.9138 255.134 47.7884 258.963 52.5498 261.193C54.7271 262.214 56.9324 263.091 55.6789 266.044C54.4037 269.048 51.975 268.54 49.5747 267.595C41.3881 264.374 39.049 255.476 44.5239 248.363C49.4139 242.01 56.606 239.775 64.1203 237.458C83.2153 234.088 101.398 236.172 118.152 245.396C124.426 248.85 130.413 253.76 134.901 259.321C143.033 269.397 141.564 280.173 132.204 289.101C130.261 290.953 127.989 292.46 125.587 294.297Z" fill="#603C6C"/>
<path d="M114.519 299.076C102.635 302.909 90.6167 306.479 78.2878 310.28C75.6182 309.035 73.2592 307.558 70.6064 305.957C79.7393 303.156 89.1719 300.499 98.5875 297.784C100.576 297.211 102.502 296.421 104.698 295.493C108.088 296.441 111.237 297.627 114.519 299.076Z" fill="#643B6A"/>
<path d="M587.423 85.6108C579.025 87.3596 570.816 87.4112 562.918 83.353C551.485 77.4786 546.023 64.8447 549.837 52.6039C554.084 38.9741 563.93 31.1612 577.238 26.5373C587.987 23.9154 598.376 23.7208 608.49 27.8977C626.827 35.4708 633.593 50.4137 632.71 68.5536C632.145 80.1547 627.527 90.3576 620.427 100.078C618.447 102.126 616.853 103.782 614.905 105.479C612.634 104.847 610.591 104.375 608.913 103.32C608.602 103.125 609.312 100.006 610.319 99.2168C618.877 92.5082 622.885 83.322 625.003 73.0783C630.538 46.3152 608.276 25.7187 581.534 33.1777C570.465 35.6035 562.129 41.2415 557.726 51.5209C554.059 60.0797 555.808 68.9989 561.473 73.9555C568.484 80.0893 580.135 81.4527 588.717 77.037C592.503 75.156 594.996 72.7193 595.973 68.6361C596.291 67.3066 598.534 66.4376 599.896 65.358C600.811 66.8878 602.426 68.4011 602.462 69.9517C602.508 71.8956 601.824 74.5131 600.462 75.7107C596.375 79.3054 591.805 82.351 587.423 85.6108Z" fill="#E16B86"/>
<path d="M651.617 221.611C645.69 226.432 639.764 231.254 633.837 236.075C634.174 236.748 634.51 237.421 634.847 238.094C638.898 237.053 642.966 236.073 646.998 234.96C657.387 232.094 667.635 228.523 678.181 226.476C686.362 224.887 693.902 228.006 699.822 234.156C707.791 242.433 708.115 253.599 699.138 260.696C692.327 266.079 684.205 270.217 676.077 273.41C666.763 277.069 656.716 278.816 647.15 281.899C642.204 283.493 637.429 285.873 632.933 288.506C630.787 289.763 629.471 292.438 627.491 294.675C625.368 293.226 623.534 291.573 621.831 289.655C622.777 288.304 623.593 287.22 624.679 286.003C630.916 279.675 638.632 276.862 646.646 274.602C656.168 271.915 665.907 269.787 675.118 266.28C681.866 263.711 688.434 259.977 694.14 255.548C700.818 250.364 700.278 244.161 693.932 238.396C689.333 234.218 683.859 232.18 677.781 233.473C670.336 235.058 663.023 237.272 655.67 239.278C649.198 241.043 642.816 243.215 636.265 244.589C632.457 245.388 628.593 244.258 626.82 240.173C624.968 235.904 627.062 232.357 630.167 229.812C635.829 225.17 641.856 220.973 647.829 216.895C649.157 218.67 650.387 220.14 651.617 221.611Z" fill="#E36B86"/>
<path d="M659.872 331.992C658.315 329.311 657.1 326.712 655.788 323.801C672.221 328.907 688.944 333.816 705.208 339.944C714.195 343.33 722.038 349.247 727.735 357.39C734.439 366.971 732.865 376.028 723.224 382.649C711.609 390.625 698.129 393.125 684.623 395.447C680.924 396.083 677.176 396.44 672.79 396.873C670.391 394.75 668.651 392.68 666.912 390.609C678.157 388.771 689.536 387.497 700.597 384.882C707.183 383.326 713.607 380.238 719.49 376.79C725.781 373.103 726.327 367.94 722.358 361.776C717.154 353.695 709.252 348.739 700.729 345.471C687.462 340.384 673.742 336.479 659.872 331.992Z" fill="#603C6C"/>
<path d="M651.918 221.493C650.387 220.14 649.157 218.67 647.982 216.627C649.179 215.09 650.392 214.196 651.457 213.151C670.127 194.833 672.649 162.325 657.254 139.768C646.617 124.183 632.054 113.46 615.259 105.438C616.853 103.782 618.446 102.126 620.312 100.376C634.606 107.471 647.119 116.594 657.39 128.669C676.91 151.618 679.816 185.656 663.798 208.963C660.629 213.574 656.114 217.261 651.918 221.493Z" fill="#603C6C"/>
<path d="M666.621 390.428C668.651 392.68 670.391 394.75 672.368 396.916C673.603 399.956 674.865 402.841 675.545 405.858C677.393 414.048 674.293 421.503 666.582 424.826C660.954 427.252 654.637 428.08 648.219 429.198C647.578 426.951 647.344 425.126 647.374 423.087C652.407 421.795 657.307 421.098 661.909 419.526C666.102 418.095 669.021 414.833 668.728 410.052C668.419 405.002 666.663 400.512 661.604 397.758C658.194 395.463 654.858 393.485 651.404 391.222C639.862 384.251 615.201 383.122 609.826 389.721C612.231 390.3 614.291 390.796 616.381 391.637C616.029 393.982 615.646 395.982 614.891 398.035C613.032 398.046 611.544 398.003 609.913 397.696C607.647 395.869 605.524 394.305 603.4 392.741C602.663 383.669 605.061 380.462 614.143 379.216C631.501 376.835 647.988 379.251 663.1 388.677C664.11 389.307 665.25 389.729 666.621 390.428Z" fill="#E16B86"/>
<path d="M647.11 423.302C647.344 425.126 647.578 426.951 647.821 429.129C633.232 430.888 618.688 430.746 604.486 426.72C600.241 425.517 595.934 423.576 592.414 420.954C583.961 414.658 584.084 403.993 592.568 397.692C595.494 395.519 599.259 394.477 603.02 392.83C605.523 394.305 607.647 395.869 609.57 397.789C605.704 399.414 601.784 400.217 598.422 402.046C591.267 405.942 591.244 413.374 598.539 417.02C603.158 419.329 608.352 421.219 613.44 421.706C624.612 422.774 635.881 422.831 647.11 423.302Z" fill="#603C6C"/>
<path d="M661.604 397.758C646.484 398.079 631.292 398.084 615.681 398.035C615.646 395.982 616.029 393.982 616.748 391.673C628.563 391.411 640.042 391.459 651.521 391.506C654.858 393.485 658.194 395.463 661.604 397.758Z" fill="#603C6C"/>
<path d="M464.304 445.563C466.52 444.624 468.771 444.052 471.287 443.599C471.664 444.151 471.777 444.585 471.888 445.019C472.607 447.823 472.218 450.39 469.031 451.014C465.182 451.769 464.867 448.602 464.304 445.563Z" fill="#603C6C"/>
</svg>
