<svg width="588" height="614" viewBox="0 0 588 614" fill="none" xmlns="http://www.w3.org/2000/svg">
<path fill-rule="evenodd" clip-rule="evenodd" d="M277.832 0.636108C409.53 -7.99621 537.098 71.9296 576.81 197.794C615.628 320.825 545.347 443.675 441.969 520.853C333.4 601.908 183.438 655.116 77.6746 570.431C-20.141 492.11 37.7013 348.634 79.2316 230.408C116.326 124.811 166.149 7.95656 277.832 0.636108Z" fill="#E698B5"/>
<g opacity="0.3294">
<path d="M392.634 170.136C318.539 128.527 219.421 136.951 153.413 190.471C135.956 204.625 120.388 222.163 113.167 243.449C105.947 264.732 108.386 290.2 123.359 306.96C143.085 329.038 177.333 330.528 201.472 347.673C238.456 373.94 242.166 428.435 272.635 462.041C308.275 501.348 375.555 500.279 417.048 467.212C458.541 434.146 475.616 377.085 470.806 324.244C465.995 271.404 455.209 205.278 392.634 170.136Z" fill="#F2BCC1"/>
<path d="M158.214 377.379C139.834 367.909 121.006 358.293 100.527 355.455C80.0474 352.616 57.2398 357.797 44.0098 373.685C31.7453 388.413 29.9732 410.187 36.9747 428.028C43.9761 445.869 58.7084 459.92 75.5402 469.09C94.3584 479.342 116.687 484.03 137.607 479.39C158.527 474.751 177.579 460.028 184.895 439.888C192.21 419.743 187.435 392.436 158.214 377.379Z" fill="#F2BCC1"/>
</g>
<mask id="mask0_372_454" style="mask-type:luminance" maskUnits="userSpaceOnUse" x="111" y="223" width="312" height="189">
<path d="M421.798 382.981C415.885 400.826 381.732 391.942 365.5 382.444C353.365 398.472 336.878 404.358 318.623 408.403C300.344 412.448 281.398 412.371 262.708 411.552C244.939 410.758 226.073 408.889 211.964 398.06C205.129 392.811 199.753 385.668 192.328 381.317C180.193 374.2 165.114 375.71 151.032 375.582C136.952 375.428 120.847 372.074 114.038 359.759C109.122 350.824 111.144 339.636 115.601 330.47C130.938 298.904 168.877 266.67 201.238 246.727C210.737 240.891 219.748 236.103 227.556 232.698C250.265 222.817 274.611 223.636 299.369 223.636C311.913 223.636 324.023 225.812 335.161 229.985C349.217 235.207 361.761 243.554 371.873 254.665C390.024 274.557 401.034 298.034 409.43 323.637C413.373 335.591 425.765 371.024 421.798 382.981Z" fill="white"/>
</mask>
<g mask="url(#mask0_372_454)">
<path d="M421.798 382.981C415.885 400.826 381.732 391.942 365.5 382.444C353.365 398.472 336.878 404.358 318.623 408.403C300.344 412.448 281.398 412.371 262.708 411.552C244.939 410.758 226.073 408.889 211.964 398.06C205.129 392.811 199.753 385.668 192.328 381.317C180.193 374.2 165.114 375.71 151.032 375.582C136.952 375.428 120.847 372.074 114.038 359.759C109.122 350.824 111.144 339.636 115.601 330.47C130.938 298.904 168.877 266.67 201.238 246.727C210.737 240.891 219.748 236.103 227.556 232.698C250.265 222.817 274.611 223.636 299.369 223.636C311.913 223.636 324.023 225.812 335.161 229.985C349.217 235.207 361.761 243.554 371.873 254.665C390.024 274.557 401.034 298.034 409.43 323.637C413.373 335.591 425.765 371.024 421.798 382.981Z" fill="#FDE1C5"/>
</g>
<mask id="mask1_372_454" style="mask-type:luminance" maskUnits="userSpaceOnUse" x="111" y="223" width="312" height="189">
<path d="M421.798 382.981C415.885 400.826 381.732 391.942 365.5 382.444C353.365 398.472 336.878 404.358 318.623 408.403C300.344 412.448 281.398 412.371 262.708 411.552C244.939 410.758 226.073 408.889 211.964 398.06C205.129 392.811 199.753 385.668 192.328 381.317C180.193 374.2 165.114 375.71 151.032 375.582C136.952 375.428 120.847 372.074 114.038 359.759C109.122 350.824 111.144 339.636 115.601 330.47C130.938 298.904 168.877 266.67 201.238 246.727C210.737 240.891 219.748 236.103 227.556 232.698C250.265 222.817 274.611 223.636 299.369 223.636C311.913 223.636 324.023 225.812 335.161 229.985C349.217 235.207 361.761 243.554 371.873 254.665C390.024 274.557 401.034 298.034 409.43 323.637C413.373 335.591 425.765 371.024 421.798 382.981Z" fill="white"/>
</mask>
<g mask="url(#mask1_372_454)">
<path opacity="0.3098" d="M132.107 288.792C228.924 307.569 330.066 303.661 425.146 277.471" stroke="#E37673" stroke-width="12.0382" stroke-miterlimit="10"/>
</g>
<mask id="mask2_372_454" style="mask-type:luminance" maskUnits="userSpaceOnUse" x="111" y="223" width="312" height="189">
<path d="M421.798 382.981C415.885 400.826 381.732 391.942 365.5 382.444C353.365 398.472 336.878 404.358 318.623 408.403C300.344 412.448 281.398 412.371 262.708 411.552C244.939 410.758 226.073 408.889 211.964 398.06C205.129 392.811 199.753 385.668 192.328 381.317C180.193 374.2 165.114 375.71 151.032 375.582C136.952 375.428 120.847 372.074 114.038 359.759C109.122 350.824 111.144 339.636 115.601 330.47C130.938 298.904 168.877 266.67 201.238 246.727C210.737 240.891 219.748 236.103 227.556 232.698C250.265 222.817 274.611 223.636 299.369 223.636C311.913 223.636 324.023 225.812 335.161 229.985C349.217 235.207 361.761 243.554 371.873 254.665C390.024 274.557 401.034 298.034 409.43 323.637C413.373 335.591 425.765 371.024 421.798 382.981Z" fill="white"/>
</mask>
<g mask="url(#mask2_372_454)">
<path opacity="0.3098" d="M136.116 265.741C229.234 282.647 326.397 280.384 417.392 254.336" stroke="#E37673" stroke-width="12.0382" stroke-miterlimit="10"/>
</g>
<path d="M325.128 226.86C313.581 238.381 297.248 245.319 280.811 246.343C262.482 247.443 244.2 241.862 228.38 232.364C250.857 222.839 274.924 223.634 299.374 223.634C308.232 223.636 316.885 224.71 325.128 226.86Z" fill="#905338"/>
<path d="M328.935 231.76C326.525 252.273 333.38 272.728 341.744 291.613C350.108 310.499 360.157 328.884 364.751 349.021" stroke="#9E8380" stroke-width="1.44459" stroke-miterlimit="10"/>
<path d="M382.031 346.2C388.58 347.897 395.162 349.606 401.352 352.339C407.542 355.072 413.376 358.897 417.573 364.204" stroke="#9E8380" stroke-width="1.44459" stroke-miterlimit="10"/>
<path d="M224.183 235.263C230.946 246.417 231.401 260.533 228.081 273.149C224.761 285.765 218.015 297.18 210.982 308.166C203.952 319.154 196.505 329.999 191.538 342.058" stroke="#9E8380" stroke-width="1.44459" stroke-miterlimit="10"/>
<path d="M219.5 566.954L256.489 518.385L280.599 539.788L237.327 580.509L219.5 566.954Z" fill="#905338"/>
<path d="M243.115 575.215C239.794 583.555 235.913 587.691 232.102 591.83C223.213 601.487 210.18 608.488 199.146 611.989C189.393 615.083 181.443 609.425 181.585 602.32C181.664 598.352 183.27 594.582 185.09 591.054C188.981 583.526 194.059 576.498 200.675 571.201C207.291 565.904 215.964 563.208 227.299 556.981C223.447 561.753 221.595 570.939 225.411 575.133C229.463 579.58 237.341 579.871 243.115 575.215Z" fill="#433F3F"/>
<path d="M215.039 577.194C218.759 571.579 222.731 566.135 226.945 560.882C228.081 559.464 229.41 557.959 231.211 557.711C233.286 557.427 235.152 558.915 236.664 560.367C238.643 562.269 240.524 564.274 242.293 566.371C243.211 567.46 244.142 568.69 244.152 570.113C244.167 572.015 242.563 573.493 241.061 574.661C235.54 578.958 229.595 582.712 223.405 585.818C219.739 583.738 216.799 580.401 215.039 577.194Z" fill="#433F3F"/>
<path d="M227.087 586.275C221.699 583.921 217.524 579.067 215.6 573.512C215.333 572.742 215.189 571.716 215.868 571.264C216.318 570.963 216.954 571.097 217.38 571.432C217.806 571.767 218.078 572.253 218.348 572.725C220.683 576.796 223.741 580.454 227.333 583.473C227.766 583.836 228.216 584.205 228.479 584.705C228.739 585.206 228.756 585.883 228.361 586.285C227.961 586.685 227.354 586.391 227.087 586.275Z" fill="#6B6B6B"/>
<path d="M222.033 590.804C216.645 588.449 212.47 583.596 210.546 578.041C210.279 577.271 210.135 576.245 210.814 575.792C211.264 575.491 211.9 575.626 212.326 575.961C212.754 576.293 213.024 576.782 213.294 577.254C215.629 581.325 218.687 584.982 222.279 588.002C222.712 588.365 223.163 588.733 223.425 589.234C223.685 589.735 223.704 590.412 223.307 590.814C222.907 591.213 222.301 590.92 222.033 590.804Z" fill="#6B6B6B"/>
<path d="M237.327 484.172C269.197 488.251 283.645 489.004 315.255 483.252C346.865 477.5 377.938 461.48 395.092 434.312C401.615 423.981 405.963 410.828 401.056 399.64C395.463 386.891 379.746 381.505 365.857 382.461C351.969 383.417 338.915 389.152 325.389 392.446C301.83 398.183 277.034 396.447 253.205 391.966C229.377 387.486 206.134 380.33 182.438 375.195C171.89 372.91 160.374 371.136 150.712 375.944C141.18 380.689 135.448 391.285 134.602 401.9C133.76 412.516 135.219 420.947 140.985 429.899C155.409 452.28 203.442 479.836 237.327 484.172Z" fill="#0C2D57"/>
<path d="M268.171 561.621C306.869 528.191 345.567 494.761 384.268 461.331C393.342 453.491 402.245 445.089 407.665 434.392C430.075 390.156 387.843 378.108 365.613 382.358C348.873 385.557 335.852 398.443 324.633 411.273C291.915 448.688 265.096 490.803 237.329 532.149C237.799 532.833 238.266 533.517 238.735 534.2L268.171 561.621Z" fill="#0C2D57"/>
<path d="M352.357 546.626L297.111 520.648L312.98 492.584L361.872 526.351L352.357 546.626Z" fill="#905338"/>
<path d="M341.048 541.238C346.805 548.126 351.587 550.235 356.498 552.978C367.956 559.377 382.525 561.96 394.101 561.84C404.333 561.734 410.119 553.878 407.767 547.173C406.452 543.429 403.751 540.347 400.919 537.566C394.871 531.627 387.855 526.537 379.915 523.571C371.977 520.604 362.895 520.749 350.183 518.375C355.333 521.705 359.96 529.855 357.642 535.029C355.181 540.516 347.987 543.857 341.048 541.238Z" fill="#433F3F"/>
<path d="M368.139 533.745C362.854 529.573 357.377 525.641 351.736 521.965C350.214 520.973 348.481 519.957 346.694 520.284C344.633 520.662 343.326 522.658 342.344 524.51C341.055 526.934 339.895 529.426 338.872 531.973C338.34 533.293 337.839 534.754 338.275 536.11C338.855 537.923 340.839 538.823 342.63 539.466C349.215 541.825 356.036 543.535 362.888 544.553C365.717 541.428 367.465 537.34 368.139 533.745Z" fill="#433F3F"/>
<path d="M359.53 546.133C363.914 542.213 366.365 536.3 366.459 530.42C366.471 529.604 366.29 528.586 365.505 528.369C364.983 528.225 364.424 528.552 364.121 529C363.818 529.448 363.714 529.999 363.603 530.529C362.657 535.125 360.895 539.555 358.422 543.544C358.124 544.024 357.811 544.515 357.719 545.073C357.628 545.629 357.823 546.277 358.323 546.537C358.824 546.795 359.311 546.328 359.53 546.133Z" fill="#6B6B6B"/>
<path d="M365.743 548.858C370.128 544.938 372.579 539.025 372.672 533.146C372.685 532.33 372.504 531.311 371.719 531.095C371.197 530.95 370.638 531.277 370.335 531.725C370.031 532.176 369.928 532.724 369.817 533.254C368.871 537.85 367.108 542.28 364.636 546.27C364.337 546.749 364.024 547.24 363.933 547.799C363.841 548.355 364.036 549.005 364.539 549.263C365.038 549.52 365.524 549.053 365.743 548.858Z" fill="#6B6B6B"/>
<path d="M306.561 536.666C262.248 511.14 217.936 485.614 173.625 460.086C163.234 454.1 152.905 447.53 145.564 438.046C115.209 398.833 154.41 379.035 177.039 379.011C194.083 378.994 209.302 389.19 222.739 399.673C261.928 430.241 296.213 466.538 331.285 501.902C330.955 502.663 330.623 503.423 330.293 504.182L306.561 536.666Z" fill="#0C2D57"/>
<path d="M287.143 458.444C290.67 453.251 294.198 448.06 297.725 442.866C306.775 429.542 316.781 415.451 331.887 409.865C340.956 406.511 351.304 406.501 359.49 401.354" stroke="#525252" stroke-width="1.44459" stroke-miterlimit="10"/>
<path d="M240.425 527.213C245.125 520.296 249.822 513.381 254.519 506.464" stroke="#525252" stroke-width="1.44459" stroke-miterlimit="10"/>
<path d="M320.226 416.58C321.346 412.292 324.295 408.659 327.784 405.924C331.273 403.188 335.303 401.245 339.3 399.324" stroke="#525252" stroke-width="1.44459" stroke-miterlimit="10"/>
<path d="M329.763 504.107C319.222 493.591 265.664 436.139 255.124 425.623C243.721 414.247 231.237 402.295 215.347 399.661C205.808 398.079 195.643 400.022 186.633 396.512" stroke="#525252" stroke-width="1.44459" stroke-miterlimit="10"/>
<path d="M228.067 404.055C226.158 400.054 222.575 397.047 218.634 395.017C214.692 392.99 210.366 391.841 206.08 390.71" stroke="#525252" stroke-width="1.44459" stroke-miterlimit="10"/>
<path d="M250.203 536.666C257.021 543.255 263.84 549.843 270.658 556.432" stroke="#525252" stroke-width="1.44459" stroke-miterlimit="10"/>
<path d="M307.011 535.37C278.976 519.981 250.942 504.591 222.905 489.202" stroke="#525252" stroke-width="1.44459" stroke-miterlimit="10"/>
<path d="M297.677 97.9475C299.278 92.2246 295.074 86.1766 289.715 83.6076C284.358 81.0387 278.173 81.0772 272.231 81.1037C266.288 81.1302 260.077 81.029 254.83 78.2386C246.746 73.9361 240.922 63.4701 231.838 64.6402C228.534 65.0664 225.643 67.084 222.395 67.8255C215.682 69.3592 209.119 65.2927 202.419 63.7085C192.244 61.3032 180.853 65.1555 174.225 73.2427C167.599 81.33 166.058 93.2575 170.416 102.76C172.275 106.812 175.159 110.66 175.174 115.119C175.193 121.099 170.154 125.676 167.142 130.843C160.497 142.243 165.025 158.709 176.57 165.104C180.027 167.02 184.019 168.166 186.815 170.957C193.465 177.595 189.957 189.303 194.252 197.662C197.276 203.552 203.752 206.865 210.154 208.555C216.556 210.245 223.266 210.702 229.531 212.843C235.634 214.925 241.172 218.556 247.425 220.14C256.61 222.468 266.893 219.885 273.887 213.49C278.344 209.417 283.077 203.412 288.894 205.032C294.208 206.513 295.768 213.365 300.044 216.851C304.283 220.306 310.555 219.866 315.655 217.889C320.754 215.912 325.273 212.633 330.397 210.719C335.475 208.822 340.962 208.331 346.174 206.85C351.387 205.369 356.645 202.569 359.031 197.703C364.137 187.286 353.527 175.17 355.679 163.768C356.428 159.795 358.679 156.297 360.225 152.563C361.771 148.828 362.553 144.338 360.439 140.895C357.656 136.359 351.237 135.622 347.515 131.818C343.807 128.029 343.571 122.178 342.136 117.074C339.767 108.647 333.416 101.436 325.355 98.0198C317.292 94.5961 307.69 95.0463 297.677 97.9475Z" fill="#242424"/>
<path d="M296.625 198.686H265.792V228.3H296.625V198.686Z" fill="#905338"/>
<path opacity="0.6902" d="M296.625 198.686V211.307C294.513 214.164 292.029 216.697 288.848 218.164C282.191 221.219 274.041 218.809 268.451 214.114C267.507 213.319 266.611 212.474 265.792 211.579V198.686H296.625Z" fill="#823615"/>
<path d="M314.063 125.043C322.935 138.456 325.061 150.928 320.826 166.426C316.594 181.924 309.922 196.762 297.443 206.848C289.228 213.488 278.849 213.789 270.791 209.937C262.73 206.087 257.05 198.592 252.492 190.904C252.22 190.435 251.968 189.982 251.696 189.513C248.871 184.606 246.375 179.429 244.388 174.123C240.192 162.985 238.237 151.635 239.335 142.549C241.494 124.665 255.013 109.673 272.683 106.261C288.46 103.237 305.208 111.647 314.063 125.043Z" fill="#905338"/>
<path d="M263.707 173.661C262.516 172.507 262.482 170.605 263.635 169.414C264.788 168.222 266.688 168.188 267.882 169.341C269.076 170.495 269.108 172.397 267.954 173.588C266.801 174.78 264.899 174.814 263.707 173.661Z" fill="#242424"/>
<path d="M294.646 173.661C293.454 172.507 293.42 170.605 294.574 169.414C295.727 168.222 297.629 168.188 298.821 169.341C300.013 170.495 300.046 172.397 298.893 173.588C297.74 174.78 295.84 174.814 294.646 173.661Z" fill="#242424"/>
<path d="M299.047 188.304C295.529 184.904 295.433 179.294 298.833 175.777C302.232 172.259 307.842 172.163 311.36 175.563C314.877 178.962 314.973 184.572 311.574 188.09C308.174 191.607 302.564 191.703 299.047 188.304Z" fill="#823615"/>
<path d="M251.705 188.304C248.188 184.904 248.091 179.294 251.491 175.777C254.891 172.259 260.5 172.163 264.018 175.563C267.536 178.962 267.632 184.572 264.232 188.09C260.833 191.607 255.223 191.703 251.705 188.304Z" fill="#823615"/>
<path d="M259.123 164.297C261.68 163.204 264.122 162.443 267.177 162.174C269.479 161.971 271.489 158.088 268.742 156.976C266.958 156.251 264.943 156.489 263.086 157C261.182 157.525 257.493 159.106 256.152 161.384C255.721 162.116 255.514 163.134 255.979 163.837C256.68 164.902 258.047 164.757 259.123 164.297Z" fill="#242424"/>
<path d="M303.426 164.297C300.869 163.204 298.428 162.443 295.373 162.174C293.071 161.971 291.061 158.088 293.808 156.976C295.592 156.251 297.61 156.489 299.463 157C301.368 157.525 305.054 159.106 306.397 161.384C306.828 162.116 307.035 163.134 306.571 163.837C305.868 164.902 304.503 164.757 303.426 164.297Z" fill="#242424"/>
<path d="M279.601 165.47C280.251 170.348 279.006 175.452 276.184 179.482C275.495 180.467 274.682 181.481 274.655 182.682C274.612 184.611 276.574 185.944 278.399 186.568C280.162 187.17 282.121 187.464 283.867 186.818C285.612 186.173 287.023 184.37 286.727 182.533" stroke="#6B3119" stroke-width="1.44459" stroke-miterlimit="10"/>
<path d="M269.028 187.738C273.935 192.751 281.663 194.795 288.407 192.862" stroke="#242424" stroke-width="1.44459" stroke-miterlimit="10"/>
<path d="M324.178 173.078C326.208 167.427 325.887 162.142 323.463 161.271C321.038 160.399 317.427 164.273 315.397 169.924C313.368 175.575 313.688 180.859 316.112 181.731C318.539 182.603 322.151 178.729 324.178 173.078Z" fill="#905338"/>
<path d="M323.906 163.703C321.402 168.053 319.462 172.729 318.147 177.575" stroke="#6B3119" stroke-width="1.44459" stroke-miterlimit="10"/>
<path d="M238.887 176.08C236.857 170.432 237.178 165.145 239.602 164.273C242.027 163.402 245.638 167.276 247.668 172.926C249.697 178.577 249.377 183.862 246.953 184.733C244.528 185.605 240.917 181.731 238.887 176.08Z" fill="#905338"/>
<path d="M239.162 166.705C241.666 171.056 243.607 175.731 244.921 180.578" stroke="#6B3119" stroke-width="1.44459" stroke-miterlimit="10"/>
<path d="M220.577 158.001C224.501 163.209 231.127 166.262 237.635 165.862C244.145 165.463 250.345 161.622 253.605 155.972C256.665 150.665 257.912 143.32 263.652 141.177C268.932 139.205 274.58 143.115 280.216 143.105C285.696 143.096 290.639 139.215 293.174 134.358C295.712 129.502 296.196 123.83 295.984 118.355C300.563 128.277 305.145 138.199 309.724 148.123C311.52 152.014 313.389 156.008 316.519 158.936C319.646 161.863 324.38 163.5 328.316 161.808C334.441 159.174 335.151 150.735 333.75 144.215C329.821 125.907 316.348 109.928 298.969 102.963C281.589 95.9973 260.811 98.2485 245.325 108.775C229.841 119.301 220.102 137.794 220.577 158.001Z" fill="#242424"/>
<path d="M274.342 307.28L273.805 306.948C271.031 317.026 258.921 322.253 255.885 332.255C254.756 335.974 255.025 339.976 254.226 343.78C252.996 349.621 249.348 354.614 246.832 360.027C244.316 365.441 243.055 372.209 246.454 377.116C250.335 382.714 258.615 383.578 262.98 388.808C267.095 393.734 266.625 401.135 270.008 406.59C273.68 412.516 281.018 414.911 287.846 416.313C296.945 418.178 306.869 418.983 314.848 413.508C319.362 410.411 322.384 405.336 322.028 399.873C321.368 389.739 310.384 386.682 305.624 379.037C300.855 371.381 303.458 361.421 301.871 352.541C299.215 337.679 285.133 327.105 280.888 315.606C279.629 312.187 277.443 309.192 274.342 307.28Z" fill="#7CE373"/>
<path d="M224.089 321.683C217.028 323.479 190.517 329.178 173.387 329.804C156.256 330.43 137.657 333.172 125.829 345.578C121.911 349.686 118.856 355.101 119.306 360.759C119.942 368.769 127.596 374.812 135.505 376.228C143.414 377.643 151.489 375.477 159.167 373.11C183.872 365.497 207.874 355.609 231.081 344.603C228.115 337.53 225.534 330.331 224.089 321.683Z" fill="#905338"/>
<path d="M223.129 376.957C223.129 376.957 268.2 317.582 283.185 297.517C283.486 297.113 281.796 296.017 281.493 296.419C267.068 315.731 220.399 374.896 220.399 374.896L223.129 376.957Z" fill="#9E9E9E"/>
<path d="M223.139 378.782C221.87 379.676 220.119 379.372 219.224 378.103C218.33 376.835 218.634 375.084 219.903 374.191C221.172 373.298 222.922 373.601 223.815 374.87C224.708 376.136 224.405 377.889 223.139 378.782Z" fill="#9E9E9E"/>
<path d="M224.354 321.56C234.541 318.803 243.873 318.757 253.802 323.816C253.653 329.291 252.545 333.516 250.294 337.544C247.003 343.438 240.661 346.917 233.915 347.143C229.547 347.29 225.298 346.698 220.904 344.806C212.109 341.018 216.368 323.719 224.354 321.56Z" fill="#905338"/>
<path d="M233.542 321.117C241.673 316.692 250.559 313.658 259.699 312.182C261.875 311.83 264.16 311.575 266.243 312.3C267.473 312.729 268.713 313.745 268.612 315.042C268.547 315.875 267.921 316.581 267.184 316.976C266.447 317.37 265.607 317.513 264.786 317.662C255.112 319.405 245.73 322.766 237.149 327.56C235.755 325.927 234.741 323.972 233.542 321.117Z" fill="#905338"/>
<path d="M238.88 323.91C247.66 320.982 256.942 319.554 266.197 319.708C268.402 319.744 270.694 319.896 272.618 320.972C273.754 321.608 274.797 322.829 274.469 324.088C274.26 324.897 273.518 325.479 272.726 325.74C271.934 326 271.079 325.992 270.244 325.992C260.414 326.009 250.588 327.668 241.297 330.882C240.211 329.033 239.559 326.931 238.88 323.91Z" fill="#905338"/>
<path d="M254.83 327.899C256.571 327.844 258.401 327.808 259.944 328.619C261.485 329.43 262.566 331.4 261.788 332.958C261.013 334.515 258.974 334.843 257.24 334.978C253.636 335.257 249.892 335.517 246.517 334.224C245.067 333.668 243.529 332.452 243.777 330.918C243.993 329.57 245.462 328.84 246.777 328.475C249.057 327.841 251.445 328.007 254.83 327.899Z" fill="#905338"/>
<path d="M251.512 334.359C253.25 334.45 255.078 334.568 256.546 335.507C258.015 336.444 258.923 338.498 258.017 339.986C257.112 341.471 255.056 341.628 253.315 341.615C249.701 341.591 245.948 341.534 242.693 339.961C241.294 339.285 239.866 337.944 240.242 336.437C240.572 335.11 242.096 334.508 243.437 334.253C245.765 333.812 248.132 334.181 251.512 334.359Z" fill="#905338"/>
<path d="M324.575 332.974C331.347 335.659 356.912 344.7 373.823 347.512C390.734 350.321 408.828 355.418 418.973 369.236C422.332 373.81 424.67 379.572 423.5 385.126C421.843 392.99 413.484 398.005 405.457 398.397C397.432 398.79 389.701 395.609 382.387 392.279C358.859 381.57 336.317 368.697 314.708 354.814C318.553 348.179 322.034 341.367 324.575 332.974Z" fill="#905338"/>
<path d="M317.222 382.355C317.222 382.355 280.111 317.705 267.815 295.889C267.567 295.451 269.384 294.577 269.632 295.018C281.468 316.015 320.191 380.663 320.191 380.663L317.222 382.355Z" fill="#9E9E9E"/>
<path d="M316.979 384.163C318.123 385.211 319.899 385.134 320.947 383.99C321.994 382.846 321.917 381.069 320.776 380.022C319.632 378.975 317.855 379.052 316.808 380.195C315.758 381.339 315.835 383.116 316.979 384.163Z" fill="#9E9E9E"/>
<path d="M324.327 332.818C314.576 328.78 305.326 327.543 294.833 331.289C294.28 336.738 294.841 341.071 296.557 345.352C299.068 351.617 304.912 355.878 311.576 356.967C315.888 357.67 320.179 357.626 324.78 356.312C333.982 353.683 331.971 335.984 324.327 332.818Z" fill="#905338"/>
<path d="M315.269 331.205C307.769 325.776 299.345 321.63 290.471 319C288.357 318.374 286.125 317.83 283.965 318.281C282.691 318.548 281.329 319.398 281.264 320.695C281.223 321.531 281.752 322.308 282.431 322.795C283.11 323.281 283.927 323.529 284.724 323.782C294.096 326.748 302.971 331.279 310.868 337.132C312.462 335.693 313.716 333.884 315.269 331.205Z" fill="#905338"/>
<path d="M309.618 333.292C301.283 329.267 292.262 326.664 283.062 325.634C280.871 325.388 278.577 325.243 276.533 326.067C275.326 326.553 274.135 327.629 274.298 328.92C274.404 329.748 275.064 330.422 275.818 330.781C276.571 331.14 277.419 331.241 278.247 331.349C287.995 332.623 297.527 335.524 306.332 339.899C307.644 338.204 308.562 336.203 309.618 333.292Z" fill="#905338"/>
<path d="M293.29 335.211C291.571 334.934 289.76 334.665 288.125 335.271C286.493 335.878 285.171 337.693 285.742 339.34C286.312 340.985 288.291 341.57 289.994 341.924C293.533 342.66 297.212 343.4 300.725 342.547C302.234 342.181 303.915 341.17 303.867 339.619C303.823 338.254 302.46 337.342 301.204 336.812C299.025 335.89 296.632 335.75 293.29 335.211Z" fill="#905338"/>
<path d="M295.753 342.039C294.017 341.907 292.19 341.791 290.613 342.533C289.038 343.274 287.873 345.196 288.581 346.787C289.289 348.376 291.309 348.793 293.035 349.004C296.622 349.44 300.352 349.866 303.783 348.723C305.256 348.232 306.845 347.083 306.664 345.54C306.508 344.182 305.073 343.39 303.773 342.966C301.524 342.234 299.131 342.297 295.753 342.039Z" fill="#905338"/>
<path d="M257.888 337.814C256.879 351.357 244.769 361.659 232.054 366.436C219.339 371.213 205.488 372.075 192.491 376.021C179.495 379.967 166.448 388.288 162.846 401.383C158.623 416.739 168.398 434.668 160.311 448.39C151.229 463.801 128.241 461.095 112.295 469.201C100.163 475.37 92.6442 487.658 83.4975 497.737C74.3509 507.815 60.5503 516.461 47.7368 511.872" stroke="#7CE373" stroke-width="2.40764" stroke-miterlimit="10"/>
<path d="M55.6648 534.456C65.9124 524.208 65.9125 507.593 55.6648 497.346C45.4172 487.098 28.8025 487.098 18.5549 497.346C8.30731 507.593 8.30736 524.208 18.555 534.456C28.8026 544.703 45.4172 544.703 55.6648 534.456Z" fill="#7CE373"/>
<path d="M16.9219 499.783C19.3969 516.682 29.9448 532.216 44.7397 540.749" stroke="#65BD53" stroke-width="1.44459" stroke-miterlimit="10"/>
<path d="M22.1102 495.213C25.05 512.288 35.5304 527.924 50.2098 537.13" stroke="#65BD53" stroke-width="1.44459" stroke-miterlimit="10"/>
<path d="M13.0886 508.537C15.8935 521.837 24.1156 533.911 35.4628 541.392" stroke="#65BD53" stroke-width="1.44459" stroke-miterlimit="10"/>
<path d="M28.6248 514.234C33.8445 505.374 42.3363 498.495 52.0872 495.23" stroke="#65BD53" stroke-width="1.44459" stroke-miterlimit="10"/>
<path d="M32.668 521.257C37.8733 511.46 47.1644 503.919 57.823 500.838" stroke="#65BD53" stroke-width="1.44459" stroke-miterlimit="10"/>
</svg>
